<svg width="28" height="26" viewBox="0 0 28 26" fill="none" xmlns="http://www.w3.org/2000/svg">
<path opacity="0.4" fill-rule="evenodd" clip-rule="evenodd" d="M27.4428 14.2443C27.4428 14.3718 27.4126 14.4931 27.3554 14.5984L21.4702 24.5797C21.2206 25.003 20.7594 25.2638 20.2602 25.2638H7.18258C6.6834 25.2638 6.22213 25.003 5.97254 24.5797L0.0868054 14.5974C0.0297765 14.4923 0 14.3716 0 14.2443C0 13.8311 0.342024 13.4962 0.763931 13.4962H7.22109L8.8575 16.2179L8.86756 16.2342C9.08593 16.5775 9.5454 16.6894 9.90339 16.4831L9.92191 16.472C10.087 16.3706 10.2065 16.211 10.2554 16.0258L12.3405 8.13273L14.131 20.8401L14.1337 20.8578C14.1998 21.2576 14.5802 21.5345 14.9921 21.4789L15.0108 21.4761C15.3091 21.4285 15.5513 21.2128 15.6273 20.9252L18.1407 11.4113L19.1726 13.1277L19.1829 13.1442C19.3221 13.3628 19.5669 13.4962 19.8309 13.4962H26.6788C27.1007 13.4962 27.4428 13.8311 27.4428 14.2443ZM20.2602 0.347656C20.7594 0.347656 21.2206 0.608426 21.4702 1.03174L27.3558 11.0136C27.4127 11.1187 27.4428 11.2399 27.4428 11.3672C27.4428 11.7803 27.1007 12.1152 26.6788 12.1152H20.2005L18.5641 9.3935L18.5528 9.37536C18.4493 9.21374 18.2863 9.09673 18.0971 9.04881L18.0793 9.04452C17.6766 8.95234 17.2703 9.1915 17.1662 9.58567L15.081 17.4787L13.2907 4.77137L13.2878 4.75305C13.2392 4.46103 13.0189 4.22379 12.7252 4.1494C12.3167 4.04594 11.9 4.2863 11.7943 4.68626L9.28088 14.2001L8.24898 12.4838L8.23873 12.4672C8.09946 12.2487 7.85467 12.1152 7.59066 12.1152H0.763931C0.342024 12.1152 0 11.7803 0 11.3672C0 11.2409 0.0289772 11.1214 0.0849554 11.017L5.97254 1.03174C6.22213 0.608426 6.6834 0.347656 7.18258 0.347656H20.2602Z" fill="white"/>
</svg>
