<svg width="20" height="21" viewBox="0 0 20 21" fill="none" xmlns="http://www.w3.org/2000/svg">
<path d="M15 2.17578H19C19.2652 2.17578 19.5196 2.28114 19.7071 2.46867C19.8946 2.65621 20 2.91056 20 3.17578V19.1758C20 19.441 19.8946 19.6954 19.7071 19.8829C19.5196 20.0704 19.2652 20.1758 19 20.1758H1C0.734784 20.1758 0.48043 20.0704 0.292893 19.8829C0.105357 19.6954 0 19.441 0 19.1758V3.17578C0 2.91056 0.105357 2.65621 0.292893 2.46867C0.48043 2.28114 0.734784 2.17578 1 2.17578H5V0.175781H7V2.17578H13V0.175781H15V2.17578ZM18 10.1758H2V18.1758H18V10.1758ZM13 4.17578H7V6.17578H5V4.17578H2V8.17578H18V4.17578H15V6.17578H13V4.17578ZM4 12.1758H6V14.1758H4V12.1758ZM9 12.1758H11V14.1758H9V12.1758ZM14 12.1758H16V14.1758H14V12.1758Z" fill="white"/>
</svg>
