<svg width="50" height="51" viewBox="0 0 50 51" fill="none" xmlns="http://www.w3.org/2000/svg">
<rect x="13.207" y="16.3906" width="24.5098" height="17.1875" fill="white"/>
<path d="M44.9916 23.1374L42.2139 19.8457C41.6828 19.2207 41.2539 18.054 41.2539 17.2207V13.679C41.2539 11.4707 39.4769 9.6582 37.3119 9.6582H33.8397C33.0431 9.6582 31.8789 9.2207 31.2661 8.67904L28.039 5.8457C26.6297 4.61654 24.3217 4.61654 22.892 5.8457L19.6852 8.69987C19.0724 9.2207 17.9082 9.6582 17.1116 9.6582H13.5782C11.4131 9.6582 9.63616 11.4707 9.63616 13.679V17.2415C9.63616 18.054 9.20723 19.2207 8.69661 19.8457L5.93926 23.1582C4.75462 24.5957 4.75462 26.9291 5.93926 28.3666L8.69661 31.6791C9.20723 32.3041 9.63616 33.4707 9.63616 34.2832V37.8457C9.63616 40.0541 11.4131 41.8666 13.5782 41.8666H17.1116C17.9082 41.8666 19.0724 42.3041 19.6852 42.8457L22.9124 45.6791C24.3217 46.9082 26.6297 46.9082 28.0594 45.6791L31.2866 42.8457C31.8993 42.3041 33.0431 41.8666 33.8601 41.8666H37.3323C39.4973 41.8666 41.2743 40.0541 41.2743 37.8457V34.3041C41.2743 33.4916 41.7032 32.3041 42.2343 31.6791L45.0121 28.3874C46.1967 26.9499 46.1967 24.5749 44.9916 23.1374ZM33.9622 21.8249L24.097 31.8874C23.8111 32.1791 23.423 32.3457 23.0145 32.3457C22.606 32.3457 22.2179 32.1791 21.932 31.8874L16.9891 26.8457C16.3968 26.2416 16.3968 25.2416 16.9891 24.6374C17.5814 24.0332 18.5618 24.0332 19.1541 24.6374L23.0145 28.5749L31.7972 19.6165C32.3895 19.0124 33.3699 19.0124 33.9622 19.6165C34.5545 20.2207 34.5545 21.2207 33.9622 21.8249Z" fill="url(#paint0_linear_4160_2588)"/>
<defs>
<linearGradient id="paint0_linear_4160_2588" x1="14.2934" y1="14.4044" x2="39.9533" y2="42.9613" gradientUnits="userSpaceOnUse">
<stop stop-color="#FE00C7"/>
<stop offset="1" stop-color="#0084FE"/>
</linearGradient>
</defs>
</svg>
