<svg width="19" height="22" viewBox="0 0 19 22" fill="none" xmlns="http://www.w3.org/2000/svg">
    <path d="M7.09163 9.5293C7.69163 9.5293 8.17763 9.9793 8.16663 10.5293C8.16663 11.0793 7.69263 11.5293 7.09163 11.5293C6.50163 11.5293 6.01562 11.0793 6.01562 10.5293C6.01562 9.9793 6.49063 9.5293 7.09163 9.5293ZM10.9396 9.5293C11.5406 9.5293 12.0156 9.9793 12.0156 10.5293C12.0156 11.0793 11.5406 11.5293 10.9396 11.5293C10.3496 11.5293 9.86462 11.0793 9.86462 10.5293C9.86462 9.9793 10.3386 9.5293 10.9396 9.5293ZM15.9066 0.529297C17.0696 0.529297 18.0156 1.4953 18.0156 2.6923V21.5293L15.8046 19.5343L14.5596 18.3583L13.2426 17.1083L13.7886 19.0513H2.12463C0.961625 19.0513 0.015625 18.0853 0.015625 16.8883V2.6923C0.015625 1.4953 0.961625 0.529297 2.12463 0.529297H15.9056H15.9066ZM11.9366 14.2423C14.2096 14.1693 15.0846 12.6463 15.0846 12.6463C15.0846 9.2653 13.6026 6.5243 13.6026 6.5243C12.1226 5.3913 10.7126 5.4223 10.7126 5.4223L10.5686 5.5903C12.3176 6.1363 13.1296 6.9243 13.1296 6.9243C12.1747 6.38629 11.1223 6.04363 10.0336 5.9163C9.34306 5.8383 8.64556 5.84502 7.95662 5.9363C7.89462 5.9363 7.84262 5.9473 7.78162 5.9573C7.42162 5.9893 6.54662 6.1253 5.44662 6.6193C5.06662 6.7973 4.83962 6.9243 4.83962 6.9243C4.83962 6.9243 5.69363 6.0943 7.54463 5.5483L7.44162 5.4223C7.44162 5.4223 6.03262 5.3913 4.55162 6.5253C4.55162 6.5253 3.07062 9.2653 3.07062 12.6463C3.07062 12.6463 3.93463 14.1683 6.20763 14.2423C6.20763 14.2423 6.58762 13.7703 6.89762 13.3713C5.59062 12.9713 5.09762 12.1313 5.09762 12.1313C5.09762 12.1313 5.19963 12.2053 5.38463 12.3103C5.39463 12.3203 5.40462 12.3313 5.42562 12.3413C5.45662 12.3633 5.48763 12.3733 5.51863 12.3943C5.77563 12.5413 6.03263 12.6563 6.26863 12.7513C6.69063 12.9193 7.19462 13.0873 7.78162 13.2033C8.66094 13.3757 9.56504 13.3791 10.4456 13.2133C10.9585 13.1217 11.459 12.9704 11.9366 12.7623C12.2966 12.6253 12.6976 12.4253 13.1196 12.1423C13.1196 12.1423 12.6056 13.0033 11.2576 13.3923C11.5666 13.7913 11.9376 14.2423 11.9376 14.2423H11.9366Z"
          fill="white"/>
</svg>
