<svg width="16" height="17" viewBox="0 0 16 17" fill="none" xmlns="http://www.w3.org/2000/svg">
<path d="M0.742188 0.236328H8.56052C8.71524 0.236411 8.86688 0.279564 8.99846 0.360955C9.13004 0.442346 9.23636 0.558761 9.30552 0.697161L9.90885 1.90299H14.9089C15.1299 1.90299 15.3418 1.99079 15.4981 2.14707C15.6544 2.30335 15.7422 2.51531 15.7422 2.73633V11.903C15.7422 12.124 15.6544 12.336 15.4981 12.4923C15.3418 12.6485 15.1299 12.7363 14.9089 12.7363H9.59052C9.4358 12.7362 9.28416 12.6931 9.15258 12.6117C9.021 12.5303 8.91468 12.4139 8.84552 12.2755L8.24219 11.0697H2.40885V16.0697H0.742188V0.236328Z" fill="white"/>
</svg>
