<svg width="24" height="24" viewBox="0 0 24 24" fill="none" xmlns="http://www.w3.org/2000/svg">
<g clip-path="url(#clip0_4160_2806)">
<path opacity="0.4" d="M14.4057 18.1029L8.48926 14.876C7.92134 15.4398 7.19923 15.8228 6.41397 15.9767C5.62871 16.1306 4.81545 16.0486 4.07672 15.741C3.33799 15.4334 2.70686 14.914 2.2629 14.2483C1.81894 13.5825 1.58203 12.8002 1.58203 12C1.58203 11.1998 1.81894 10.4175 2.2629 9.75173C2.70686 9.08597 3.33799 8.56656 4.07672 8.25896C4.81545 7.95137 5.62871 7.86938 6.41397 8.02331C7.19923 8.17725 7.92134 8.56023 8.48926 9.12397L14.4057 5.89712C14.2028 4.94509 14.3494 3.95182 14.8186 3.09896C15.2878 2.2461 16.0484 1.59064 16.9612 1.25244C17.8739 0.914245 18.878 0.915911 19.7896 1.25713C20.7013 1.59836 21.4596 2.25634 21.926 3.11075C22.3924 3.96516 22.5357 4.95891 22.3296 5.91027C22.1235 6.86162 21.5819 7.70702 20.8038 8.29185C20.0256 8.87668 19.0629 9.16186 18.0918 9.09525C17.1207 9.02865 16.2059 8.6147 15.5149 7.9291L9.59846 11.1559C9.71648 11.7125 9.71648 12.2875 9.59846 12.8441L15.5149 16.0709C16.2059 15.3853 17.1207 14.9714 18.0918 14.9047C19.0629 14.8381 20.0256 15.1233 20.8038 15.7082C21.5819 16.293 22.1235 17.1384 22.3296 18.0897C22.5357 19.0411 22.3924 20.0348 21.926 20.8893C21.4596 21.7437 20.7013 22.4016 19.7896 22.7429C18.878 23.0841 17.8739 23.0858 16.9612 22.7476C16.0484 22.4094 15.2878 21.7539 14.8186 20.901C14.3494 20.0482 14.2028 19.0549 14.4057 18.1029Z" fill="white"/>
</g>
<defs>
<clipPath id="clip0_4160_2806">
<rect width="24" height="24" fill="white"/>
</clipPath>
</defs>
</svg>
