<svg width="19" height="19" viewBox="0 0 19 19" fill="none" xmlns="http://www.w3.org/2000/svg">
    <path d="M1.01562 0.0292969H17.0156C17.2808 0.0292969 17.5352 0.134654 17.7227 0.32219C17.9103 0.509726 18.0156 0.76408 18.0156 1.0293V17.0293C18.0156 17.2945 17.9103 17.5489 17.7227 17.7364C17.5352 17.9239 17.2808 18.0293 17.0156 18.0293H1.01562C0.750409 18.0293 0.496055 17.9239 0.308518 17.7364C0.120982 17.5489 0.015625 17.2945 0.015625 17.0293V1.0293C0.015625 0.76408 0.120982 0.509726 0.308518 0.32219C0.496055 0.134654 0.750409 0.0292969 1.01562 0.0292969ZM14.3156 12.9693C14.2156 12.9193 14.1656 12.7693 14.1656 12.6683V5.0353C14.1656 4.9353 14.2156 4.7853 14.3156 4.6843L15.2706 3.5793V3.5293H11.8556L9.29562 10.0073L6.38163 3.5293H2.86763V3.5793L3.77063 4.8353C3.97163 5.0353 4.02163 5.3373 4.02163 5.5883V11.1113C4.07163 11.4133 4.02163 11.7643 3.87162 12.0653L2.51562 13.9233V13.9733H6.13163V13.9233L4.77563 12.1163C4.62563 11.8143 4.57463 11.5133 4.62563 11.1623V6.1393C4.67563 6.2393 4.72563 6.2393 4.77563 6.4403L8.18962 14.0733H8.23962L11.5556 5.7893C11.5056 6.0893 11.5056 6.4413 11.5056 6.6933V12.6183C11.5056 12.7683 11.4556 12.8683 11.3556 12.9693L10.3506 13.9233V13.9733H15.2716V13.9233L14.3176 12.9693H14.3156Z"
          fill="white"/>
</svg>
