<svg width="24" height="6" viewBox="0 0 24 6" fill="none" xmlns="http://www.w3.org/2000/svg">
<g opacity="0.4">
<path d="M20.7423 0.0234356C22.3926 0.0234356 23.7306 1.36122 23.7306 3.01172C23.7306 4.66222 22.3926 6 20.7423 6C19.0918 6 17.7539 4.66222 17.7539 3.01172C17.7539 1.36122 19.0919 0.0234356 20.7423 0.0234356Z" fill="white"/>
<path d="M11.8867 0.0234356C13.5372 0.0234356 14.875 1.36122 14.875 3.01172C14.875 4.66222 13.5372 6 11.8867 6C10.2362 6 8.89844 4.66222 8.89844 3.01172C8.89844 1.36122 10.2362 0.0234356 11.8867 0.0234356Z" fill="white"/>
<path d="M3.03516 0.0234356C4.68565 0.0234356 6.02359 1.36122 6.02359 3.01172C6.02359 4.66222 4.68561 6 3.03516 6C1.38486 6 0.046875 4.66222 0.046875 3.01172C0.0468751 1.36122 1.38486 0.0234356 3.03516 0.0234356Z" fill="white"/>
</g>
</svg>
