<svg width="20" height="19" viewBox="0 0 20 19" fill="none" xmlns="http://www.w3.org/2000/svg">
<path opacity="0.7" fill-rule="evenodd" clip-rule="evenodd" d="M19.5982 10.8713C19.5982 10.9634 19.577 11.051 19.5368 11.1271L15.4009 18.3378C15.2255 18.6436 14.9014 18.832 14.5506 18.832H5.36014C5.00933 18.832 4.68518 18.6436 4.50977 18.3378L0.373504 11.1264C0.333426 11.0505 0.3125 10.9633 0.3125 10.8713C0.3125 10.5728 0.552861 10.3309 0.849361 10.3309H3.10935C4.52011 10.3309 5.82497 11.0793 6.53721 12.2971L6.54428 12.3089C6.69774 12.5569 7.02064 12.6377 7.27222 12.4886L7.28524 12.4807C7.40124 12.4074 7.48521 12.2921 7.5196 12.1583C7.83522 10.9301 9.61223 11.0327 9.78442 12.289L10.2432 15.6362L10.2451 15.649C10.2916 15.9378 10.5589 16.1379 10.8484 16.0977L10.8615 16.0957C11.0711 16.0613 11.2414 15.9055 11.2948 15.6977L12.7035 10.2159C12.8349 9.70459 13.5197 9.6089 13.7863 10.0646L13.7935 10.0766C13.8914 10.2345 14.0634 10.3309 14.2489 10.3309H19.0614C19.3579 10.3309 19.5982 10.5728 19.5982 10.8713ZM14.5506 0.832031C14.9014 0.832031 15.2255 1.02042 15.4009 1.32623L19.5371 8.53732C19.5771 8.61328 19.5982 8.70084 19.5982 8.7928C19.5982 9.09126 19.3579 9.3332 19.0614 9.3332H16.7865C15.3757 9.3332 14.0709 8.58473 13.3586 7.36696L13.3507 7.35386C13.2779 7.23709 13.1634 7.15256 13.0304 7.11794L13.018 7.11485C12.735 7.04826 12.4494 7.22103 12.3762 7.50579C12.0606 8.73396 10.2836 8.63137 10.1114 7.37503L9.65266 4.02782L9.65068 4.01459C9.61649 3.80363 9.46167 3.63224 9.25528 3.5785C8.96823 3.50376 8.67533 3.6774 8.60108 3.96634L7.19229 9.44815C7.06088 9.95947 6.37609 10.0551 6.10957 9.59944L6.10236 9.58748C6.00449 9.42959 5.83246 9.3332 5.64692 9.3332H0.849361C0.552861 9.3332 0.3125 9.09126 0.3125 8.7928C0.3125 8.70154 0.332864 8.61523 0.372203 8.53979L4.50977 1.32623C4.68518 1.02042 5.00933 0.832031 5.36014 0.832031H14.5506Z" fill="url(#paint0_linear_4047_1329)"/>
<defs>
<linearGradient id="paint0_linear_4047_1329" x1="0.3125" y1="9.83204" x2="19.5982" y2="9.83204" gradientUnits="userSpaceOnUse">
<stop stop-color="#FE00C7"/>
<stop offset="1" stop-color="#0084FE"/>
</linearGradient>
</defs>
</svg>
