<svg width="23" height="22" viewBox="0 0 23 22" fill="none" xmlns="http://www.w3.org/2000/svg">
<path d="M4.58027 10.4566C4.58029 10.3336 4.60461 10.2118 4.65184 10.0982C4.69906 9.98463 4.76826 9.88148 4.85546 9.7947C4.94266 9.70792 5.04615 9.63923 5.15997 9.59255C5.27379 9.54587 5.39572 9.52214 5.51874 9.52272L7.07462 9.5278C7.3227 9.5278 7.56062 9.62635 7.73603 9.80177C7.91145 9.97719 8.01 10.2151 8.01 10.4632V16.3468C8.18524 16.2948 8.4095 16.2395 8.65629 16.1814C8.82726 16.1411 8.97964 16.0443 9.08871 15.9066C9.19777 15.769 9.25714 15.5985 9.25718 15.4228V8.12518C9.25718 7.87708 9.35573 7.63915 9.53114 7.4637C9.70655 7.28825 9.94447 7.18966 10.1926 7.18962H11.7532C12.0013 7.18966 12.2392 7.28825 12.4146 7.4637C12.59 7.63915 12.6886 7.87708 12.6886 8.12518V14.8986C12.6886 14.8986 13.079 14.7406 13.459 14.5801C13.6003 14.5203 13.7208 14.4203 13.8056 14.2926C13.8903 14.1648 13.9356 14.0149 13.9357 13.8615V5.78663C13.9357 5.53859 14.0343 5.30069 14.2096 5.12528C14.385 4.94987 14.6229 4.8513 14.8709 4.85125H16.4299C16.6778 4.85149 16.9155 4.95015 17.0907 5.12554C17.266 5.30093 17.3644 5.53871 17.3644 5.78663V12.436C18.716 11.4565 20.0857 10.2783 21.1727 8.86172C21.3304 8.65609 21.4348 8.41462 21.4765 8.15886C21.5182 7.90309 21.4959 7.64098 21.4117 7.39591C20.9085 5.94827 20.1087 4.62162 19.0634 3.50085C18.0181 2.38007 16.7503 1.48985 15.3412 0.887158C13.9321 0.284462 12.4127 -0.0174378 10.8802 0.000777846C9.34769 0.0189935 7.83589 0.356923 6.4415 0.992942C5.04712 1.62896 3.80086 2.54906 2.78248 3.69437C1.76409 4.83967 0.996013 6.18496 0.527386 7.64415C0.0587594 9.10333 -0.100094 10.6443 0.0609915 12.1684C0.222077 13.6925 0.699553 15.1662 1.46287 16.4951C1.59585 16.7244 1.79151 16.9109 2.02684 17.0329C2.26217 17.1548 2.52741 17.207 2.7914 17.1834C3.0863 17.1574 3.45348 17.1207 3.89003 17.0695C4.08003 17.0479 4.25544 16.9572 4.38285 16.8146C4.51027 16.672 4.58079 16.4875 4.58099 16.2963V10.4566" fill="white"/>
<path d="M4.5459 19.8916C6.18917 21.0871 8.13111 21.8046 10.1569 21.9649C12.1827 22.1252 14.2133 21.7219 16.0241 20.7998C17.8349 19.8776 19.3553 18.4725 20.4171 16.7398C21.4789 15.0072 22.0407 13.0146 22.0403 10.9825C22.0403 10.7283 22.0285 10.478 22.0116 10.2285C17.987 16.2311 10.5559 19.0372 4.5459 19.8916Z" fill="white"/>
</svg>
