<svg width="23" height="22" viewBox="0 0 23 22" fill="none" xmlns="http://www.w3.org/2000/svg">
<path d="M0.10498 12.1134H6.20286C6.39337 15.6392 7.51723 19.0511 9.45943 22C7.02667 21.6179 4.78911 20.4404 3.0966 18.6516C1.40409 16.8628 0.352055 14.5635 0.10498 12.1134ZM0.10498 9.88664C0.352055 7.43647 1.40409 5.13724 3.0966 3.34845C4.78911 1.55965 7.02667 0.382131 9.45943 0C7.51723 2.94886 6.39337 6.36079 6.20286 9.88664H0.10498ZM22.2609 9.88664H16.163C15.9725 6.36079 14.8486 2.94886 12.9064 0C15.3392 0.382131 17.5767 1.55965 19.2692 3.34845C20.9617 5.13724 22.0138 7.43647 22.2609 9.88664ZM22.2609 12.1134C22.0138 14.5635 20.9617 16.8628 19.2692 18.6516C17.5767 20.4404 15.3392 21.6179 12.9064 22C14.8486 19.0511 15.9725 15.6392 16.163 12.1134H22.262H22.2609ZM8.43292 12.1134H13.9329C13.7497 15.1189 12.8032 18.028 11.1829 20.566C9.56264 18.028 8.61617 15.1189 8.43292 12.1134ZM8.43292 9.88664C8.61617 6.88114 9.56264 3.97198 11.1829 1.43401C12.8032 3.97198 13.7497 6.88114 13.9329 9.88664H8.43292Z" fill="white"/>
</svg>
