<svg width="21" height="21" viewBox="0 0 21 21" fill="none" xmlns="http://www.w3.org/2000/svg">
<path d="M10.0156 20.0293C4.49263 20.0293 0.015625 15.5523 0.015625 10.0293C0.015625 4.5063 4.49263 0.0292969 10.0156 0.0292969C15.5386 0.0292969 20.0156 4.5063 20.0156 10.0293C20.0156 15.5523 15.5386 20.0293 10.0156 20.0293ZM6.90563 11.1993L6.91862 11.1923L7.78862 14.0623C7.90062 14.3733 8.05462 14.4293 8.24162 14.4033C8.42962 14.3783 8.52862 14.2773 8.65162 14.1593L9.83963 13.0113L12.3896 14.8993C12.8556 15.1563 13.1906 15.0233 13.3066 14.4673L14.9636 6.6453C15.1466 5.9173 14.8266 5.6253 14.2616 5.8573L4.52863 9.6173C3.86462 9.8833 3.86863 10.2553 4.40863 10.4203L6.90563 11.2003V11.1993Z" fill="white"/>
</svg>
