<svg width="20" height="20" viewBox="0 0 20 20" fill="none" xmlns="http://www.w3.org/2000/svg">
    <path d="M0.0625 11.0304H5.5395C5.71062 14.1972 6.72005 17.2618 8.4645 19.9104C6.27943 19.5672 4.2697 18.5095 2.74952 16.9029C1.22934 15.2962 0.284418 13.2311 0.0625 11.0304V11.0304ZM0.0625 9.03039C0.284418 6.82969 1.22934 4.76457 2.74952 3.1579C4.2697 1.55124 6.27943 0.493614 8.4645 0.150391C6.72005 2.799 5.71062 5.86354 5.5395 9.03039H0.0625ZM19.9625 9.03039H14.4855C14.3144 5.86354 13.305 2.799 11.5605 0.150391C13.7456 0.493614 15.7553 1.55124 17.2755 3.1579C18.7957 4.76457 19.7406 6.82969 19.9625 9.03039V9.03039ZM19.9625 11.0304C19.7406 13.2311 18.7957 15.2962 17.2755 16.9029C15.7553 18.5095 13.7456 19.5672 11.5605 19.9104C13.305 17.2618 14.3144 14.1972 14.4855 11.0304H19.9635H19.9625ZM7.5425 11.0304H12.4825C12.3179 13.7299 11.4678 16.3428 10.0125 18.6224C8.5572 16.3428 7.70709 13.7299 7.5425 11.0304V11.0304ZM7.5425 9.03039C7.70709 6.33091 8.5572 3.71795 10.0125 1.43839C11.4678 3.71795 12.3179 6.33091 12.4825 9.03039H7.5425Z"
          fill="white"/>
</svg>
