<svg width="31" height="31" viewBox="0 0 31 31" fill="none" xmlns="http://www.w3.org/2000/svg">
<circle cx="15.0625" cy="15.3672" r="15" fill="#0E193B"/>
<path d="M23.8199 13.8224C23.6904 13.5358 23.5463 13.2561 23.3881 12.9844L21.3506 18.5191C21.2729 18.7259 21.1599 18.9176 21.0166 19.0857C21.5635 19.0316 22.0905 18.8518 22.5566 18.5605C23.0226 18.2692 23.4151 17.8742 23.7034 17.4063C23.9916 16.9384 24.1679 16.4102 24.2185 15.863C24.2691 15.3157 24.1927 14.7642 23.995 14.2513C23.9408 14.1053 23.8825 13.9632 23.8199 13.8224Z" fill="#1A96F8"/>
<path d="M12.1255 8.83531C10.9366 9.2585 9.84532 9.91724 8.91698 10.7721C7.98864 11.6269 7.24233 12.6603 6.72271 13.8103C6.2031 14.9603 5.92087 16.2034 5.89293 17.465C5.86498 18.7267 6.09188 19.981 6.56006 21.1529C6.57243 21.178 6.58081 21.2028 6.59318 21.2279C6.84191 21.8219 7.24686 22.3374 7.76503 22.7198C8.2832 23.1021 8.89524 23.337 9.53616 23.3994C10.1771 23.4619 10.823 23.3496 11.4052 23.0744C11.9874 22.7993 12.4843 22.3717 12.843 21.8369C13.5932 20.7067 14.6702 19.8322 15.9303 19.3301C15.9702 19.3141 16.0101 19.3021 16.0501 19.2874C16.1919 18.9601 16.403 18.6674 16.6689 18.4296C16.9347 18.1917 17.249 18.0143 17.59 17.9095C17.5817 17.609 17.6433 17.3106 17.7699 17.038L20.9223 10.2116C19.6841 9.27292 18.2324 8.65588 16.6972 8.4157C15.1621 8.17552 13.5913 8.31969 12.1255 8.83531ZM9.67936 19.2503C9.36367 19.2503 9.05507 19.1567 8.79258 18.9813C8.5301 18.8059 8.32551 18.5566 8.2047 18.2649C8.08389 17.9733 8.05228 17.6523 8.11387 17.3427C8.17546 17.0331 8.32748 16.7487 8.55071 16.5255C8.77393 16.3022 9.05834 16.1502 9.36797 16.0886C9.67759 16.027 9.99853 16.0586 10.2902 16.1794C10.5819 16.3003 10.8311 16.5048 11.0065 16.7673C11.1819 17.0298 11.2755 17.3384 11.2755 17.6541C11.2755 18.0774 11.1074 18.4834 10.808 18.7828C10.5087 19.0821 10.1027 19.2503 9.67936 19.2503ZM11.6746 14.6613C11.3589 14.6613 11.0503 14.5677 10.7878 14.3923C10.5253 14.2169 10.3207 13.9676 10.1999 13.676C10.0791 13.3843 10.0475 13.0634 10.1091 12.7537C10.1707 12.4441 10.3227 12.1597 10.5459 11.9365C10.7691 11.7133 11.0535 11.5612 11.3632 11.4996C11.6728 11.4381 11.9937 11.4697 12.2854 11.5905C12.5771 11.7113 12.8263 11.9159 13.0017 12.1784C13.1771 12.4408 13.2707 12.7494 13.2707 13.0651C13.2707 13.4885 13.1026 13.8945 12.8032 14.1938C12.5039 14.4931 12.0979 14.6613 11.6746 14.6613ZM16.4631 13.2647C16.1474 13.2647 15.8388 13.171 15.5763 12.9957C15.3138 12.8203 15.1092 12.571 14.9884 12.2793C14.8676 11.9877 14.836 11.6667 14.8976 11.3571C14.9592 11.0475 15.1112 10.7631 15.3344 10.5398C15.5576 10.3166 15.842 10.1646 16.1517 10.103C16.4613 10.0414 16.7822 10.073 17.0739 10.1938C17.3655 10.3146 17.6148 10.5192 17.7902 10.7817C17.9656 11.0442 18.0592 11.3528 18.0592 11.6685C18.0592 12.0918 17.8911 12.4978 17.5917 12.7972C17.2924 13.0965 16.8864 13.2647 16.4631 13.2647Z" fill="#1A96F8"/>
<path opacity="0.5" d="M23.6357 7.93757C23.4587 7.86403 23.26 7.86194 23.0815 7.93173C22.9029 8.00152 22.7583 8.13776 22.678 8.31187L18.4945 17.3721C18.3982 17.5805 18.367 17.8132 18.4051 18.0396C18.4432 18.266 18.5488 18.4756 18.708 18.641C18.3191 18.5498 17.9104 18.5997 17.5549 18.7817C17.1993 18.9638 16.92 19.2662 16.7666 19.6351C16.1206 21.1953 17.1425 21.8797 16.4961 23.4399C17.2331 23.3576 17.9351 23.0816 18.5308 22.6401C19.1266 22.1985 19.5948 21.6071 19.8879 20.926C20.026 20.5905 20.052 20.2195 19.9621 19.8681C19.8722 19.5168 19.6713 19.2038 19.3891 18.9758C19.6443 19.0087 19.903 18.9541 20.1231 18.821C20.3432 18.6879 20.5117 18.484 20.601 18.2428L24.0487 8.87691C24.1142 8.69729 24.1078 8.49932 24.0309 8.32431C23.9539 8.1493 23.8124 8.01075 23.6357 7.93757Z" fill="#1A96F8"/>
</svg>
