<svg width="740" height="168" viewBox="0 0 740 168" fill="none" xmlns="http://www.w3.org/2000/svg">
<rect width="739.624" height="167.74" rx="10" fill="url(#paint0_linear_0_1)" fill-opacity="0.2"/>
<path opacity="0.1" d="M390.227 88.2V95.25H398V99.95H390.227V107H385.045V99.95H377.273V95.25H385.045V88.2H390.227ZM390.248 60C391.668 60 392.818 61.0458 392.818 62.3335V84.3037C391.154 83.7705 389.401 83.4987 387.636 83.5V64.7H346.182L346.184 97.6L370.259 75.7614C370.705 75.356 371.298 75.1122 371.928 75.0759C372.558 75.0395 373.181 75.2131 373.679 75.5641L373.92 75.7638L383.107 84.1063C381.099 84.6615 379.234 85.58 377.628 86.8064C376.021 88.0327 374.704 89.5415 373.758 91.2418C372.811 92.9422 372.254 94.7987 372.12 96.6997C371.985 98.6006 372.277 100.506 372.977 102.302L343.57 102.3C342.888 102.299 342.235 102.053 341.753 101.616C341.271 101.178 341 100.585 341 99.9664V62.3335C341.005 61.7164 341.277 61.1257 341.758 60.6891C342.239 60.2524 342.89 60.0049 343.57 60H390.248ZM356.545 69.4C357.92 69.4 359.238 69.8952 360.21 70.7766C361.181 71.658 361.727 72.8535 361.727 74.1C361.727 75.3465 361.181 76.542 360.21 77.4234C359.238 78.3048 357.92 78.8 356.545 78.8C355.171 78.8 353.853 78.3048 352.881 77.4234C351.91 76.542 351.364 75.3465 351.364 74.1C351.364 72.8535 351.91 71.658 352.881 70.7766C353.853 69.8952 355.171 69.4 356.545 69.4Z" fill="white"/>
<defs>
<linearGradient id="paint0_linear_0_1" x1="-13.9242" y1="89.0064" x2="954.804" y2="89.0067" gradientUnits="userSpaceOnUse">
<stop stop-color="#F405C9"/>
<stop offset="1" stop-color="#3993FF"/>
</linearGradient>
</defs>
</svg>
