<svg width="31" height="31" viewBox="0 0 31 31" fill="none" xmlns="http://www.w3.org/2000/svg">
<circle cx="15.0625" cy="15.3672" r="15" fill="#0E193B"/>
<path opacity="0.5" d="M11.9062 6.8659C13.2947 6.9689 15.2978 7.83313 16.3622 8.38583C16.6963 8.29539 17.1268 8.20579 17.6167 8.16475L15.2936 7.00324C13.9018 6.21187 12.9731 6.28138 12.3752 6.55773C12.1943 6.64147 12.0394 6.74782 11.9062 6.8659Z" fill="#1A96F8"/>
<path d="M14.8352 12.9092C15.0078 13.8078 15.5462 15.3344 16.9858 16.0303C17.7177 16.3846 18.6883 16.5378 19.9787 16.2506C21.7248 15.8628 22.5722 15.0966 22.8905 14.2742C23.099 13.7358 23.0948 13.1487 22.9173 12.5567C22.6878 11.7879 22.1569 11.0049 21.4987 10.3459C19.5768 8.42396 17.1357 8.99676 16.2681 9.28819C15.3704 8.78322 13.09 7.71382 11.6748 7.69372C11.0861 7.68451 10.6163 7.85032 10.3165 8.15766C10.0895 8.3913 9.93713 8.71204 9.92289 9.15336C9.8961 9.98158 10.4002 10.7244 11.1933 11.3123C12.3255 12.1514 14.0456 12.6915 14.8352 12.9092ZM19.7099 11.6388C20.0449 11.6388 20.3162 11.9102 20.3162 12.2443C20.3162 12.5793 20.0449 12.8506 19.7099 12.8506C19.3758 12.8506 19.1045 12.5793 19.1045 12.2443C19.1045 11.9102 19.3758 11.6388 19.7099 11.6388Z" fill="#1A96F8"/>
<path d="M13.3424 13.3105C11.2848 14.282 8.30859 16.3956 8.30859 20.4848C8.30859 22.0575 9.22976 23.0147 10.362 23.5808C11.7755 24.2876 13.5166 24.3411 13.7561 24.3445C13.9319 24.3621 14.7141 24.4224 15.2961 24.2247C15.7223 24.0807 16.0498 23.8094 16.1913 23.4208C16.3136 23.0858 16.3069 22.5767 15.8898 21.8774C16.8236 22.8338 18.1475 23.6947 19.1893 24.0079C20.025 24.2591 20.7151 24.141 21.0978 23.7558C21.5492 23.3011 21.5835 22.7408 21.3457 22.1697C21.1346 21.6639 20.659 21.1489 20.2947 20.8039C21.2075 19.469 21.2628 18.1509 21.076 17.1393L21.0015 16.8353C20.7436 16.9224 20.4647 17.0003 20.1624 17.0681C18.6358 17.4072 17.4893 17.2021 16.6234 16.7842C15.1487 16.0707 14.4394 14.6471 14.1363 13.576C13.8993 13.5023 13.6296 13.4136 13.3424 13.3105ZM15.2584 19.4799C15.029 20.1708 14.4252 20.762 13.2159 21.0911C12.8809 21.1815 12.6833 21.5274 12.7738 21.8615C12.865 22.1965 13.2101 22.3941 13.545 22.3028C15.3061 21.8247 16.1176 20.8809 16.4509 19.8743C16.5598 19.5452 16.3806 19.1901 16.0515 19.0804C15.7223 18.9716 15.3673 19.1508 15.2584 19.4799ZM15.1998 17.4675C15.2601 17.6802 15.312 17.9089 15.3447 18.1467C15.3916 18.49 15.7089 18.7304 16.0523 18.6835C16.3956 18.6358 16.636 18.3192 16.5891 17.9759C16.548 17.6777 16.4836 17.3913 16.4082 17.1259C16.3144 16.7917 15.9669 16.5983 15.6327 16.6921C15.2994 16.7867 15.1052 17.1342 15.1998 17.4675Z" fill="#1A96F8"/>
<path opacity="0.5" d="M7.49471 20.9824C7.45452 21.0729 7.416 21.1641 7.37915 21.2554C7.19073 21.7286 7.07014 22.2051 7.07432 22.5945C7.07935 22.983 7.19994 23.3063 7.42521 23.5441C7.63121 23.7627 7.93604 23.9268 8.3916 23.9511C8.61184 23.9637 8.88401 23.9394 9.21395 23.8674C8.30786 23.2184 7.63205 22.2871 7.49471 20.9824Z" fill="#1A96F8"/>
</svg>
