<svg xmlns="http://www.w3.org/2000/svg" xmlns:xlink="http://www.w3.org/1999/xlink" version="1.1" width="1000" height="1000" viewBox="0 0 1000 1000" xml:space="preserve">
<desc>Created with Fabric.js 3.5.0</desc>
<defs>
</defs>
<rect x="0" y="0" width="100%" height="100%" fill="#ffffff"/>
<g transform="matrix(1 0 0 1 27.5043 25.1992)" id="276696">
<g style="">
		<g transform="matrix(1 0 0 1 0 0)" id="694364">
<path style="stroke: rgb(0,132,254); stroke-width: 2; stroke-dasharray: none; stroke-linecap: round; stroke-dashoffset: 0; stroke-linejoin: miter; stroke-miterlimit: 4; is-custom-font: none; font-file-url: none; fill: none; fill-rule: nonzero; opacity: 1;" vector-effect="non-scaling-stroke" transform=" translate(-6.0015, -4.7652)" d="M 1.78027 4.78213 L 4.58315 7.585 L 10.2228 1.94531" stroke-linecap="round"/>
</g>
		<g transform="matrix(1 0 0 1 0 0)" id="611146">
<path style="stroke: rgb(0,132,254); stroke-width: 2; stroke-dasharray: none; stroke-linecap: round; stroke-dashoffset: 0; stroke-linejoin: miter; stroke-miterlimit: 4; is-custom-font: none; font-file-url: none; fill: none; fill-rule: nonzero; opacity: 1;" vector-effect="non-scaling-stroke" transform=" translate(-6.0015, -4.7652)" d="M 1.78027 4.78213 L 4.58315 7.585 L 10.2228 1.94531" stroke-linecap="round"/>
</g>
		<g transform="matrix(1 0 0 1 0 0)" id="909003">
<path style="stroke: rgb(0,132,254); stroke-width: 2; stroke-dasharray: none; stroke-linecap: round; stroke-dashoffset: 0; stroke-linejoin: miter; stroke-miterlimit: 4; is-custom-font: none; font-file-url: none; fill: none; fill-rule: nonzero; opacity: 1;" vector-effect="non-scaling-stroke" transform=" translate(-6.0015, -4.7652)" d="M 1.78027 4.78213 L 4.58315 7.585 L 10.2228 1.94531" stroke-linecap="round"/>
</g>
		<g transform="matrix(1 0 0 1 0 0)" id="714900">
<path style="stroke: rgb(0,132,254); stroke-width: 2; stroke-dasharray: none; stroke-linecap: round; stroke-dashoffset: 0; stroke-linejoin: miter; stroke-miterlimit: 4; is-custom-font: none; font-file-url: none; fill: none; fill-rule: nonzero; opacity: 1;" vector-effect="non-scaling-stroke" transform=" translate(-6.0015, -4.7652)" d="M 1.78027 4.78213 L 4.58315 7.585 L 10.2228 1.94531" stroke-linecap="round"/>
</g>
		<g transform="matrix(1 0 0 1 0 0)" id="512936">
<path style="stroke: rgb(0,132,254); stroke-width: 2; stroke-dasharray: none; stroke-linecap: round; stroke-dashoffset: 0; stroke-linejoin: miter; stroke-miterlimit: 4; is-custom-font: none; font-file-url: none; fill: none; fill-rule: nonzero; opacity: 1;" vector-effect="non-scaling-stroke" transform=" translate(-6.0015, -4.7652)" d="M 1.78027 4.78213 L 4.58315 7.585 L 10.2228 1.94531" stroke-linecap="round"/>
</g>
		<g transform="matrix(1 0 0 1 0 0)" id="699572">
<path style="stroke: rgb(0,132,254); stroke-width: 2; stroke-dasharray: none; stroke-linecap: round; stroke-dashoffset: 0; stroke-linejoin: miter; stroke-miterlimit: 4; is-custom-font: none; font-file-url: none; fill: none; fill-rule: nonzero; opacity: 1;" vector-effect="non-scaling-stroke" transform=" translate(-6.0015, -4.7652)" d="M 1.78027 4.78213 L 4.58315 7.585 L 10.2228 1.94531" stroke-linecap="round"/>
</g>
		<g transform="matrix(1 0 0 1 0 0)" id="530929">
<rect style="stroke: none; stroke-width: 1; stroke-dasharray: none; stroke-linecap: butt; stroke-dashoffset: 0; stroke-linejoin: miter; stroke-miterlimit: 4; is-custom-font: none; font-file-url: none; fill: rgb(255,255,255); fill-rule: nonzero; opacity: 1;" vector-effect="non-scaling-stroke" x="-12" y="-12" rx="6" ry="6" width="24" height="24"/>
</g>
		<g transform="matrix(1 0 0 1 0 0)" id="760815">
<rect style="stroke: none; stroke-width: 1; stroke-dasharray: none; stroke-linecap: butt; stroke-dashoffset: 0; stroke-linejoin: miter; stroke-miterlimit: 4; is-custom-font: none; font-file-url: none; fill: rgb(255,255,255); fill-rule: nonzero; opacity: 1;" vector-effect="non-scaling-stroke" x="-12" y="-12" rx="6" ry="6" width="24" height="24"/>
</g>
		<g transform="matrix(1 0 0 1 0 0)" id="39189">
<path style="stroke: rgb(0,132,254); stroke-width: 2; stroke-dasharray: none; stroke-linecap: round; stroke-dashoffset: 0; stroke-linejoin: miter; stroke-miterlimit: 4; is-custom-font: none; font-file-url: none; fill: none; fill-rule: nonzero; opacity: 1;" vector-effect="non-scaling-stroke" transform=" translate(-6.0015, -4.7652)" d="M 1.78027 4.78213 L 4.58315 7.585 L 10.2228 1.94531" stroke-linecap="round"/>
</g>
</g>
</g>
</svg>