<svg width="22" height="22" viewBox="0 0 22 22" fill="none" xmlns="http://www.w3.org/2000/svg">
<rect width="22" height="22" rx="4" fill="#00B2FE"/>
<path d="M5.00019 9.27079C5.00019 8.14077 4.99977 7.01074 5.00019 5.88071C5.00019 5.32617 5.32269 5.00031 5.87179 5.00031C7.30003 4.9999 8.72827 4.9999 10.1565 5.00031C10.7056 5.00031 11.029 5.32659 11.029 5.88029C11.0294 8.14035 11.0294 10.4004 11.029 12.6605C11.029 13.2213 10.7064 13.5413 10.1414 13.5413C8.72366 13.5417 7.30589 13.5417 5.88812 13.5413C5.31767 13.5413 5.00019 13.2209 5.00019 12.645C5.00019 11.5204 5.00019 10.3954 5.00019 9.27079ZM10.5268 9.2842C10.5268 8.14872 10.5272 7.01367 10.5268 5.8782C10.5268 5.60093 10.4275 5.50292 10.1473 5.50292C8.72408 5.5025 7.30087 5.5025 5.87807 5.50292C5.6008 5.50292 5.50321 5.60219 5.50321 5.88281C5.50321 8.14286 5.50279 10.4033 5.50321 12.6634C5.50321 12.9407 5.60248 13.0387 5.88268 13.0391C7.30045 13.0395 8.71864 13.0395 10.1364 13.0391C10.4346 13.0391 10.5272 12.9453 10.5272 12.6433C10.5268 11.5233 10.5268 10.4038 10.5268 9.2842Z" fill="white" stroke="white" stroke-width="0.42" stroke-miterlimit="10"/>
<path d="M14.9009 7.80905C14.9018 7.99543 14.8356 8.16799 14.7887 8.34391C14.2153 10.4913 13.6394 12.6378 13.0635 14.7844C12.9265 15.295 12.5014 15.5488 11.9967 15.4135C10.8227 15.0985 9.64996 14.7785 8.47679 14.461C8.46674 14.4581 8.45627 14.4573 8.44622 14.4543C8.28455 14.4058 8.19994 14.278 8.23889 14.1402C8.27868 13.9982 8.41145 13.9295 8.5748 13.9727C9.14484 14.1226 9.71446 14.2742 10.2841 14.4267C10.8839 14.5871 11.4832 14.7492 12.0826 14.9105C12.3753 14.9892 12.5094 14.9126 12.589 14.6169C13.1833 12.3995 13.7772 10.1822 14.3707 7.96486C14.4415 7.70015 14.3594 7.55774 14.0947 7.48445C13.3307 7.27293 12.5663 7.06226 11.8024 6.85075C11.7622 6.83944 11.7211 6.83064 11.6822 6.81598C11.5456 6.76405 11.4782 6.63295 11.5201 6.50311C11.5632 6.36866 11.6855 6.29704 11.8288 6.33557C12.2267 6.44238 12.6233 6.55504 13.0204 6.66478C13.4425 6.78164 13.866 6.89472 14.2873 7.01619C14.6689 7.12592 14.9026 7.43377 14.9009 7.80905Z" fill="white" stroke="white" stroke-width="0.42" stroke-miterlimit="10"/>
<path d="M17.7833 11.0178C17.7887 11.1749 17.7401 11.3164 17.6631 11.45C16.5175 13.4345 15.3737 15.4202 14.2261 17.4038C13.971 17.8449 13.5132 17.9605 13.0676 17.7041C12.0134 17.0977 10.9604 16.4891 9.90743 15.8809C9.72649 15.7767 9.67288 15.638 9.75581 15.499C9.83665 15.3637 9.98324 15.3457 10.1663 15.4512C11.1928 16.0426 12.2194 16.634 13.2456 17.2263C13.5505 17.4022 13.6623 17.3733 13.8382 17.0688C14.9519 15.1383 16.066 13.2079 17.1797 11.2775C17.3468 10.9881 17.3138 10.867 17.0185 10.6966C16.404 10.3414 15.7896 9.98579 15.1739 9.63229C15.0554 9.56443 14.9704 9.47983 15.0005 9.33282C15.0382 9.14643 15.2221 9.07984 15.4089 9.18706C16.0606 9.56108 16.711 9.93762 17.3619 10.3137C17.3891 10.3292 17.416 10.3456 17.4411 10.3644C17.6618 10.5261 17.7787 10.743 17.7833 11.0178Z" fill="white" stroke="white" stroke-width="0.42" stroke-miterlimit="10"/>
</svg>
