<svg width="12" height="22" viewBox="0 0 12 22" fill="none" xmlns="http://www.w3.org/2000/svg">
<path opacity="0.85" d="M6.03505 0.248047C6.49855 1.10327 6.94722 1.9312 7.39589 2.76048C8.90629 5.55071 10.4161 8.34231 11.9308 11.1298C12.0167 11.2875 12.0266 11.3632 11.864 11.4684C9.96925 12.6983 8.0794 13.9371 6.19016 15.1773C6.07769 15.251 5.99549 15.2606 5.87807 15.1827C3.98328 13.9364 2.08477 12.6962 0.186266 11.4561C0.0824417 11.3885 0.00704538 11.3516 0.0991278 11.1824C2.06129 7.57172 4.01603 3.95766 5.97263 0.343603C5.98375 0.322444 5.99858 0.304015 6.03505 0.248047Z" fill="white"/>
<path d="M11.9655 12.7671C11.3005 13.8086 10.6374 14.8515 9.96992 15.8917C8.69745 17.8752 7.42313 19.8573 6.14943 21.8408C6.08268 21.9445 6.04808 22.0687 5.92077 21.8701C3.9858 18.8424 2.04403 15.8201 0.103504 12.7957C0.0880544 12.7712 0.0750763 12.7452 0.0862004 12.6865C0.513858 12.9616 0.943371 13.2346 1.36979 13.5117C2.8666 14.4857 4.36402 15.4583 5.85649 16.4398C5.9906 16.5279 6.07774 16.5217 6.2069 16.4371C8.0331 15.2447 9.86362 14.0598 11.6935 12.8735C11.772 12.8223 11.8567 12.7821 11.9383 12.737C11.9469 12.7473 11.9562 12.7568 11.9655 12.7671Z" fill="white"/>
</svg>
