<svg width="31" height="31" viewBox="0 0 31 31" fill="none" xmlns="http://www.w3.org/2000/svg">
<circle cx="15.0625" cy="15.3672" r="15" fill="#0E193B"/>
<path d="M22.3402 22.5008C21.5002 22.9208 20.3802 22.6408 19.8202 21.8008L18.2802 19.8408H10.7202L9.18023 21.8008C8.48023 22.7808 7.22023 22.9208 6.24023 22.2208C5.54023 21.6608 5.26023 20.8208 5.40023 20.1208L6.38023 14.9408C6.66023 13.2608 8.20023 12.0008 9.88023 12.0008H13.8002V9.90078C13.8002 8.78078 14.6402 7.80078 15.7602 7.80078H20.1002C20.5202 7.80078 20.8002 8.08078 20.8002 8.50078C20.8002 8.92078 20.5202 9.20078 20.1002 9.20078H15.9002C15.4802 9.20078 15.2002 9.48078 15.2002 9.76078V9.90078V12.0008H19.1202C20.8002 12.0008 22.3402 13.2608 22.6202 14.9408L23.6002 20.1208C23.7402 21.1008 23.3202 22.0808 22.3402 22.5008ZM12.4002 15.5008C12.4002 14.3808 11.4202 13.4008 10.3002 13.4008C9.18023 13.4008 8.20023 14.3808 8.20023 15.5008C8.20023 16.6208 9.18023 17.6008 10.3002 17.6008C11.4202 17.6008 12.4002 16.6208 12.4002 15.5008ZM20.8002 15.5008C20.8002 15.0808 20.5202 14.8008 20.1002 14.8008H19.4002V14.1008C19.4002 13.6808 19.1202 13.4008 18.7002 13.4008C18.2802 13.4008 18.0002 13.6808 18.0002 14.1008V14.8008H17.3002C16.8802 14.8008 16.6002 15.0808 16.6002 15.5008C16.6002 15.9208 16.8802 16.2008 17.3002 16.2008H18.0002V16.9008C18.0002 17.3208 18.2802 17.6008 18.7002 17.6008C19.1202 17.6008 19.4002 17.3208 19.4002 16.9008V16.2008H20.1002C20.5202 16.2008 20.8002 15.9208 20.8002 15.5008Z" fill="#1A96F8"/>
</svg>
