<svg width="22" height="22" viewBox="0 0 22 22" fill="none" xmlns="http://www.w3.org/2000/svg">
<path d="M11.9868 15.3757C9.94224 15.3757 7.89773 15.3757 5.85322 15.3757C4.91731 15.3757 4.36543 14.8544 4.25674 13.918C4.07982 12.3986 3.87876 10.8822 3.68976 9.36458C3.50137 7.85423 3.31479 6.34387 3.12761 4.83292C3.03281 4.07018 2.9356 3.30805 2.84563 2.5447C2.82812 2.39651 2.79189 2.32332 2.61558 2.33663C2.34567 2.35719 2.07275 2.34691 1.80103 2.34086C1.19964 2.32756 0.728663 1.84608 0.730474 1.2521C0.732285 0.658728 1.20567 0.178464 1.80888 0.17181C2.44228 0.165157 3.07629 0.168786 3.70969 0.1706C4.34067 0.172415 4.76757 0.565578 4.85089 1.19283C5.02117 2.4697 5.20594 3.74476 5.37198 5.02224C5.39614 5.20733 5.45591 5.24362 5.63283 5.24362C10.7175 5.23818 15.8023 5.23999 20.887 5.23757C21.1134 5.23757 21.3247 5.26721 21.4938 5.42931C21.7075 5.63436 21.7752 5.87933 21.7021 6.17088C21.175 8.27279 20.6521 10.3753 20.1274 12.4772C19.9855 13.0464 19.8412 13.6156 19.6993 14.1848C19.5078 14.9542 18.9759 15.3764 18.1879 15.3764C16.1205 15.3764 14.0536 15.3757 11.9868 15.3757Z" fill="white"/>
<path d="M5.07814 18.9866C5.08236 17.7938 6.06416 16.82 7.25971 16.8242C8.45405 16.8285 9.4268 17.809 9.42257 19.0048C9.41834 20.1982 8.43715 21.172 7.2416 21.1678C6.04846 21.1642 5.07451 20.1818 5.07814 18.9866Z" fill="white"/>
<path d="M15.9297 16.8242C17.1259 16.8206 18.1064 17.7938 18.1101 18.9878C18.1137 20.1837 17.1397 21.1641 15.946 21.1678C14.7511 21.1714 13.7687 20.1964 13.7656 19.0036C13.762 17.809 14.736 16.8273 15.9297 16.8242Z" fill="white"/>
</svg>
