<svg width="22" height="21" viewBox="0 0 22 21" fill="none" xmlns="http://www.w3.org/2000/svg">
<path d="M10.9486 14.2617C10.3369 14.2617 9.82422 14.7744 9.82422 15.3861C9.82422 15.9977 10.3369 16.5104 10.9486 16.5104C11.5377 16.5104 12.0729 15.9977 12.0459 15.4131C12.0729 14.7699 11.5647 14.2617 10.9486 14.2617Z" fill="currentColor"/>
<path d="M21.3537 18.2462C22.0598 17.0274 22.0643 15.5747 21.3627 14.3604L14.3197 2.16341C13.6226 0.935612 12.3634 0.207031 10.9512 0.207031C9.53898 0.207031 8.2797 0.94011 7.5826 2.15891L0.530658 14.3694C-0.170938 15.5972 -0.166441 17.0588 0.544151 18.2776C1.24575 19.4829 2.50053 20.207 3.90372 20.207H17.9716C19.3793 20.207 20.6431 19.474 21.3537 18.2462ZM19.8246 17.3647C19.4333 18.0393 18.7407 18.4395 17.9671 18.4395H3.89922C3.13466 18.4395 2.44656 18.0483 2.06428 17.3872C1.6775 16.717 1.673 15.9165 2.05978 15.2419L9.11172 3.0359C9.494 2.36579 10.1776 1.97002 10.9512 1.97002C11.7202 1.97002 12.4083 2.37029 12.7906 3.0404L19.8381 15.2464C20.2158 15.903 20.2113 16.6945 19.8246 17.3647Z" fill="currentColor"/>
<path d="M10.6688 6.36963C10.1336 6.52255 9.80078 7.00827 9.80078 7.59743C9.82777 7.95272 9.85025 8.31252 9.87724 8.66781C9.95369 10.0215 10.0301 11.3483 10.1066 12.702C10.1336 13.1607 10.4889 13.4935 10.9476 13.4935C11.4064 13.4935 11.7661 13.1382 11.7886 12.675C11.7886 12.3962 11.7886 12.1398 11.8156 11.8565C11.8651 10.9885 11.9191 10.1205 11.9685 9.25247C11.9955 8.6903 12.045 8.12812 12.072 7.56594C12.072 7.36356 12.045 7.18366 11.9685 7.00377C11.7392 6.50006 11.204 6.24371 10.6688 6.36963Z" fill="currentColor"/>
</svg>
