<svg width="22" height="25" viewBox="0 0 22 25" fill="none" xmlns="http://www.w3.org/2000/svg">
<path d="M8.09543 19.4992C8.00045 19.2183 7.97527 18.9589 7.92148 18.7064C7.70747 17.6953 7.48145 16.6882 7.08662 15.7266C6.58593 14.5062 5.72819 13.6475 4.49907 13.1482C3.37696 12.6927 2.19877 12.4532 1.01715 12.2229C0.926738 12.2053 0.836328 12.1877 0.730469 12.1672C0.830606 12.0762 0.95306 12.0904 1.05892 12.07C2.22109 11.8425 3.37982 11.6042 4.48362 11.1595C5.72017 10.6608 6.58479 9.79978 7.08719 8.57143C7.55813 7.41872 7.79846 6.20686 8.03764 4.99444C8.04851 4.93814 8.0405 4.87445 8.1023 4.83691C8.30715 5.91115 8.51544 6.98368 8.87136 8.01925C9.10883 8.70962 9.41496 9.36417 9.90077 9.92489C10.3711 10.4686 10.9565 10.8462 11.6111 11.1254C12.7315 11.6025 13.9194 11.8368 15.1079 12.0682C15.2109 12.0882 15.3128 12.1126 15.4146 12.1371C15.4243 12.1393 15.4301 12.1564 15.4392 12.1683C14.3583 12.3714 13.2797 12.5812 12.2371 12.9338C11.2953 13.2522 10.4329 13.6992 9.79949 14.4954C9.31883 15.0993 9.02414 15.7959 8.79239 16.5227C8.48626 17.4838 8.29342 18.4716 8.09543 19.4992Z" fill="white"/>
<path d="M12.3594 19.4611C12.6798 19.3951 13.0008 19.3303 13.3213 19.2626C13.8305 19.1551 14.3289 19.0141 14.8096 18.8122C15.7206 18.4306 16.2418 17.7209 16.5388 16.8122C16.7305 16.2253 16.849 15.6231 16.972 15.0208C16.9852 14.9571 16.9903 14.8917 17.0378 14.832C17.1843 15.5082 17.297 16.1855 17.5225 16.8361C17.7496 17.4917 18.0689 18.082 18.6617 18.4892C19.135 18.8145 19.6683 18.9993 20.2176 19.1386C20.6445 19.2473 21.0782 19.3274 21.5091 19.4213C21.5726 19.4349 21.635 19.4531 21.7305 19.4776C21.0278 19.6306 20.3566 19.754 19.7015 19.9575C18.5828 20.305 17.8618 21.0215 17.5127 22.1339C17.3085 22.7839 17.1843 23.4509 17.0258 24.1686C16.948 23.7973 16.885 23.4777 16.8141 23.1592C16.6578 22.462 16.4759 21.7739 16.0788 21.1643C15.6702 20.5376 15.0579 20.2015 14.3713 19.9672C13.7161 19.7437 13.0357 19.6306 12.3594 19.4611Z" fill="white"/>
<path d="M12.3594 4.79702C12.6798 4.73106 13.0008 4.66623 13.3213 4.59855C13.8305 4.49107 14.3289 4.35004 14.8096 4.14816C15.7206 3.76657 16.2418 3.05686 16.5388 2.14811C16.7305 1.56123 16.849 0.959002 16.972 0.35677C16.9852 0.293078 16.9903 0.22768 17.0378 0.167969C17.1843 0.844129 17.297 1.52143 17.5225 2.172C17.7496 2.82768 18.0689 3.41797 18.6617 3.82515C19.135 4.15043 19.6683 4.33525 20.2176 4.47458C20.6445 4.5832 21.0782 4.66338 21.5091 4.75722C21.5726 4.77086 21.635 4.78906 21.7305 4.81351C21.0278 4.96649 20.3566 5.08989 19.7015 5.29348C18.5828 5.64094 17.8618 6.35748 17.5127 7.46982C17.3085 8.11982 17.1843 8.78688 17.0258 9.50455C16.948 9.13321 16.885 8.81361 16.8141 8.49515C16.6578 7.79795 16.4759 7.10984 16.0788 6.50022C15.6702 5.87353 15.0579 5.53744 14.3713 5.30315C13.7161 5.07966 13.0357 4.96649 12.3594 4.79702Z" fill="white"/>
</svg>
