<svg width="20" height="20" viewBox="0 0 20 20" fill="none" xmlns="http://www.w3.org/2000/svg">
<g filter="url(#filter0_b_5233_681)">
<circle cx="10" cy="10" r="10" fill="#06132D"/>
<circle cx="10" cy="10" r="9.5" stroke="#282A53"/>
</g>
<path d="M11.3284 6.92846C11.2779 6.58684 11.107 6.32436 10.8157 6.14101C10.523 5.94843 10.1735 5.88218 9.7673 5.94227C9.37029 6.001 9.01274 6.1671 8.69467 6.44059C8.3766 6.71407 8.09647 7.05271 7.85428 7.45649L6.90041 6.74845C7.23837 6.22671 7.63222 5.79578 8.08196 5.45564C8.53956 5.10491 9.10536 4.87969 9.77936 4.78C10.2687 4.70762 10.7216 4.73969 11.1381 4.87622C11.5545 5.01275 11.8981 5.23082 12.1689 5.53043C12.4396 5.83004 12.6064 6.1922 12.6693 6.61691C12.7293 7.02315 12.7021 7.38099 12.5875 7.69043C12.4728 7.99987 12.3026 8.2845 12.0769 8.54433C11.8498 8.79492 11.6022 9.0344 11.334 9.26276C11.0751 9.48975 10.8261 9.72 10.5871 9.95349C10.3466 10.1778 10.1472 10.4243 9.98883 10.693C9.83045 10.9617 9.75344 11.2703 9.75781 11.6188L9.76017 12.4959L8.74917 12.6454C8.72355 12.536 8.69195 12.418 8.65436 12.2915C8.62465 12.1543 8.60023 12.0211 8.58111 11.8919C8.51146 11.421 8.53583 11.0117 8.65422 10.664C8.77261 10.3162 8.944 10.0078 9.16838 9.73877C9.39139 9.46048 9.63303 9.21245 9.8933 8.99469C10.1536 8.77693 10.4007 8.56583 10.6346 8.3614C10.8672 8.14774 11.0515 7.92705 11.1877 7.69935C11.3238 7.47164 11.3707 7.21468 11.3284 6.92846ZM9.50249 15.6333C9.24397 15.6716 9.02462 15.6238 8.84444 15.4901C8.6629 15.3471 8.55711 15.1741 8.52706 14.9709C8.47653 14.6293 8.54379 14.3505 8.72883 14.1344C8.91387 13.9183 9.13566 13.7912 9.39418 13.7529C9.66193 13.7133 9.88128 13.7611 10.0522 13.8962C10.2324 14.0299 10.3382 14.203 10.3696 14.4153C10.4201 14.757 10.3529 15.0358 10.1678 15.2519C9.99202 15.4666 9.77024 15.5937 9.50249 15.6333Z" fill="white"/>
<defs>
<filter id="filter0_b_5233_681" x="-40" y="-40" width="100" height="100" filterUnits="userSpaceOnUse" color-interpolation-filters="sRGB">
<feFlood flood-opacity="0" result="BackgroundImageFix"/>
<feGaussianBlur in="BackgroundImage" stdDeviation="20"/>
<feComposite in2="SourceAlpha" operator="in" result="effect1_backgroundBlur_5233_681"/>
<feBlend mode="normal" in="SourceGraphic" in2="effect1_backgroundBlur_5233_681" result="shape"/>
</filter>
</defs>
</svg>
