<svg width="21" height="21" viewBox="0 0 21 21" fill="none" xmlns="http://www.w3.org/2000/svg">
<path d="M10.5 20.0918C4.977 20.0918 0.5 15.6148 0.5 10.0918C0.5 4.5688 4.977 0.0917969 10.5 0.0917969C16.023 0.0917969 20.5 4.5688 20.5 10.0918C20.5 15.6148 16.023 20.0918 10.5 20.0918ZM10.5 18.0918C12.6217 18.0918 14.6566 17.2489 16.1569 15.7487C17.6571 14.2484 18.5 12.2135 18.5 10.0918C18.5 7.97007 17.6571 5.93523 16.1569 4.43494C14.6566 2.93465 12.6217 2.0918 10.5 2.0918C8.37827 2.0918 6.34344 2.93465 4.84315 4.43494C3.34285 5.93523 2.5 7.97007 2.5 10.0918C2.5 12.2135 3.34285 14.2484 4.84315 15.7487C6.34344 17.2489 8.37827 18.0918 10.5 18.0918ZM11.5 10.0918H15.5V12.0918H9.5V5.0918H11.5V10.0918Z" fill="white"/>
</svg>
