<svg width="19" height="26" viewBox="0 0 19 26" fill="none" xmlns="http://www.w3.org/2000/svg">
<path d="M14.6314 8.83758V8.90969L14.6877 8.95473C16.8094 10.6518 18.0435 13.2222 18.041 15.9391C18.0364 20.8726 14.0332 24.8683 9.09968 24.8637L9.09954 25.0137L9.0994 24.8637C6.38247 24.8662 3.81207 23.6321 2.11504 21.5104C-0.966493 17.6576 -0.341307 12.0362 3.51146 8.95468L3.56777 8.90964V8.83754V5.69549C3.56777 2.64033 6.04438 0.163672 9.09954 0.163672C12.1547 0.163672 14.6314 2.64033 14.6314 5.69554V8.83758ZM5.54048 5.69549V5.84549H5.54052V7.5012V7.72448L5.74723 7.64006C7.89603 6.76254 10.3032 6.76254 12.452 7.64006L12.6587 7.72448V7.5012V5.69549C12.6587 3.72982 11.0653 2.13638 9.09959 2.13638C7.13391 2.13638 5.54048 3.72987 5.54048 5.69549ZM2.13136 15.9226V15.9227C2.13136 19.7712 5.25113 22.8909 9.09954 22.8909C12.9479 22.8909 16.0677 19.7711 16.0677 15.9227C16.0677 12.0743 12.9479 8.95456 9.09954 8.95456V9.10456L9.09939 8.95456C5.25267 8.95843 2.13524 12.0759 2.13136 15.9226Z" fill="currentColor" stroke="black" stroke-width="0.3"/>
<path d="M8.11488 16.7472V16.6606L8.03987 16.6173C7.7172 16.431 7.44923 16.163 7.2629 15.8403L7.2629 15.8403C6.67672 14.8251 7.02458 13.5268 8.03988 12.9406C9.05517 12.3545 10.3534 12.7023 10.9396 13.7176C11.5257 14.7329 11.1779 16.0311 10.1626 16.6173L10.0876 16.6606V16.7472V19.3347C10.0876 19.8794 9.646 20.3211 9.10123 20.3211C8.55646 20.3211 8.11488 19.8795 8.11488 19.3347V16.7472Z" fill="currentColor" stroke="black" stroke-width="0.3"/>
</svg>
