<svg width="20" height="20" viewBox="0 0 20 20" fill="none" xmlns="http://www.w3.org/2000/svg">
<g filter="url(#filter0_b_5004_41)">
<circle cx="10" cy="10" r="10" fill="#06132D"/>
<circle cx="10" cy="10" r="9.5" stroke="#282A53"/>
</g>
<path d="M8.79261 14V7.45455H10.3352V14H8.79261ZM9.56818 6.52557C9.32386 6.52557 9.11364 6.4446 8.9375 6.28267C8.76136 6.1179 8.6733 5.92045 8.6733 5.69034C8.6733 5.45739 8.76136 5.25994 8.9375 5.09801C9.11364 4.93324 9.32386 4.85085 9.56818 4.85085C9.81534 4.85085 10.0256 4.93324 10.1989 5.09801C10.375 5.25994 10.4631 5.45739 10.4631 5.69034C10.4631 5.92045 10.375 6.1179 10.1989 6.28267C10.0256 6.4446 9.81534 6.52557 9.56818 6.52557Z" fill="white"/>
<defs>
<filter id="filter0_b_5004_41" x="-40" y="-40" width="100" height="100" filterUnits="userSpaceOnUse" color-interpolation-filters="sRGB">
<feFlood flood-opacity="0" result="BackgroundImageFix"/>
<feGaussianBlur in="BackgroundImage" stdDeviation="20"/>
<feComposite in2="SourceAlpha" operator="in" result="effect1_backgroundBlur_5004_41"/>
<feBlend mode="normal" in="SourceGraphic" in2="effect1_backgroundBlur_5004_41" result="shape"/>
</filter>
</defs>
</svg>
