<svg width="31" height="31" viewBox="0 0 31 31" fill="none" xmlns="http://www.w3.org/2000/svg">
<circle cx="15.0625" cy="15.3672" r="15" fill="#0E193B"/>
<path d="M22.015 7.42079C20.0604 7.42091 18.1427 6.88965 16.4668 5.88384L16.0158 5.61376C15.9199 5.55611 15.8103 5.52496 15.6984 5.52349C15.5864 5.52202 15.4761 5.55029 15.3787 5.60541C15.2812 5.66053 15.2002 5.74053 15.1438 5.83722C15.0873 5.93392 15.0576 6.04386 15.0576 6.15581V16.9784C14.3397 16.2463 13.3898 15.7863 12.3702 15.6772C11.3507 15.5681 10.325 15.8166 9.46842 16.3802C8.61186 16.9438 7.97772 17.7874 7.67446 18.7669C7.37119 19.7464 7.41764 20.8008 7.80586 21.7498C8.19408 22.6988 8.89995 23.4834 9.80274 23.9695C10.7055 24.4556 11.7492 24.6129 12.7551 24.4146C13.7611 24.2162 14.6669 23.6745 15.3177 22.8822C15.9684 22.0898 16.3236 21.0959 16.3226 20.0706V11.0513C18.0732 11.9896 20.0287 12.4806 22.015 12.4807C22.1827 12.4807 22.3436 12.4141 22.4622 12.2955C22.5808 12.1768 22.6475 12.016 22.6475 11.8482V8.05328C22.6475 7.88553 22.5808 7.72466 22.4622 7.60604C22.3436 7.48743 22.1827 7.42079 22.015 7.42079Z" fill="#1A96F8"/>
</svg>
