<svg width="31" height="31" viewBox="0 0 31 31" fill="none" xmlns="http://www.w3.org/2000/svg">
<circle cx="15.0625" cy="15.3672" r="15" fill="#0E193B"/>
<path d="M20.8163 8.40625L15.9863 11.9154L24.0792 17.7953C24.2411 17.1104 24.3273 16.3965 24.3273 15.6629C24.3273 12.7265 22.954 10.1051 20.8163 8.40625Z" fill="#1A96F8"/>
<path d="M19.8762 7.74946C18.4725 6.89263 16.8244 6.39844 15.0629 6.39844C13.1699 6.39844 11.408 6.96951 9.93945 7.94781L11.7852 13.628L19.8762 7.74946Z" fill="#1A96F8"/>
<path d="M9.02327 8.64258C7.04902 10.3431 5.79688 12.8599 5.79688 15.6639C5.79688 16.5255 5.91552 17.3598 6.13656 18.1519H12.1133L9.02327 8.64258Z" fill="#1A96F8"/>
<path d="M6.51416 19.2383C7.86786 22.4642 10.9963 24.7678 14.6711 24.9214L16.5176 19.2383H6.51416Z" fill="#1A96F8"/>
<path d="M15.8208 24.8981C19.4637 24.602 22.5171 22.1897 23.7472 18.8955L18.9125 15.3828L15.8208 24.8981Z" fill="#1A96F8"/>
</svg>
