<svg width="21" height="21" viewBox="0 0 21 21" fill="none" xmlns="http://www.w3.org/2000/svg">
<g clip-path="url(#clip0_4047_3602)">
<path d="M9.0638 2.66797V4.33464H4.89714V16.0013H16.5638V11.8346H18.2305V16.8346C18.2305 17.0556 18.1427 17.2676 17.9864 17.4239C17.8301 17.5802 17.6181 17.668 17.3971 17.668H4.0638C3.84279 17.668 3.63083 17.5802 3.47455 17.4239C3.31827 17.2676 3.23047 17.0556 3.23047 16.8346V3.5013C3.23047 3.28029 3.31827 3.06833 3.47455 2.91205C3.63083 2.75577 3.84279 2.66797 4.0638 2.66797H9.0638ZM15.3855 4.33464H11.5638V2.66797H18.2305V9.33464H16.5638V5.51297L10.7305 11.3463L9.55214 10.168L15.3855 4.33464Z" fill="white"/>
</g>
<defs>
<clipPath id="clip0_4047_3602">
<rect width="20" height="20" fill="white" transform="translate(0.730469 0.167969)"/>
</clipPath>
</defs>
</svg>
