<svg width="31" height="31" viewBox="0 0 31 31" fill="none" xmlns="http://www.w3.org/2000/svg">
<circle cx="15.0625" cy="15.3672" r="15" fill="#0E193B"/>
<path d="M11.4879 5.85536C10.3094 6.33318 9.25192 7.03574 8.34512 7.94229C7.43806 8.8491 6.7363 9.90687 6.25822 11.0852C5.79668 12.2235 5.5625 13.4265 5.5625 14.6604C5.5625 15.8941 5.79668 17.097 6.25822 18.2349C6.7363 19.4134 7.43832 20.4712 8.34512 21.3778C9.25192 22.2848 10.3092 22.9869 11.4879 23.4647C12.6263 23.9268 13.829 24.1602 15.0629 24.1602C16.2968 24.1602 17.4992 23.926 18.6376 23.4647C19.8158 22.9869 20.8739 22.2848 21.7804 21.3778C22.6875 20.4712 23.3895 19.414 23.8673 18.2349C24.3288 17.097 24.5625 15.8941 24.5625 14.6604C24.5625 13.4265 24.3286 12.2235 23.8673 11.0852C23.3895 9.90687 22.6869 8.84884 21.7804 7.94229C20.8739 7.03574 19.8169 6.33318 18.6376 5.85536C17.4992 5.39408 16.2968 5.16016 15.0629 5.16016C13.829 5.16016 12.6263 5.39408 11.4879 5.85536ZM7.93688 18.6597C7.47928 18.3725 7.05764 18.0417 6.68432 17.6521C6.11409 16.0474 6.01748 14.3102 6.39526 12.6612C6.573 12.3107 6.77515 11.9741 7.00382 11.6517C7.07445 11.5522 7.13982 11.4485 7.21543 11.3519L9.3593 12.6205C9.3593 12.6373 9.3593 12.6557 9.3593 12.6743C9.35378 13.8274 9.47087 14.9721 9.70401 16.1002C9.70479 16.1054 9.70558 16.1083 9.70663 16.1131L8.04399 18.7201C8.00776 18.7017 7.97179 18.6817 7.93688 18.6597ZM14.3113 23.0669C14.6812 23.2557 15.0616 23.4151 15.4525 23.5448C13.792 23.617 12.1149 23.2279 10.6323 22.3772L14.2262 23.0176C14.2538 23.0352 14.2818 23.052 14.3113 23.0669ZM14.2981 22.4182L10.0571 21.6624C9.56092 21.0598 9.11461 20.4224 8.73105 19.7411C8.63338 19.5678 8.52443 19.3995 8.44173 19.2186L10.1028 16.6142C10.1396 16.6234 10.1805 16.6331 10.227 16.6455C11.2661 16.9235 12.3236 17.1212 13.3884 17.2761C13.4507 17.2848 13.5026 17.2924 13.547 17.2971L15.5381 20.7398C15.1926 21.2255 14.8432 21.7086 14.4861 22.1864C14.4268 22.2659 14.3638 22.3423 14.2981 22.4182ZM21.354 20.9517C21.0164 21.2895 20.6581 21.5941 20.2829 21.8656C20.2207 21.3683 20.1133 20.881 19.9618 20.4051L22.0863 16.4418C22.6715 16.1753 23.2359 15.8731 23.7599 15.4984C23.8284 15.4499 23.8854 15.3955 23.9295 15.3362C23.7757 17.3843 22.9172 19.3888 21.354 20.9517ZM21.2598 15.8117C21.3388 15.9624 21.4168 16.1146 21.495 16.269L19.443 20.0968C19.4312 20.0995 19.4199 20.1021 19.4081 20.1037C18.2989 20.3108 17.1808 20.4211 16.0532 20.4263L14.0054 16.8854C14.3241 16.2937 14.6399 15.6996 14.9532 15.1052C15.1658 14.7019 15.3748 14.296 15.5835 13.8904L19.8216 13.4551C20.3407 14.2165 20.8324 14.9941 21.2598 15.8117ZM20.4 11.2713C20.1989 11.8024 19.9836 12.328 19.7696 12.8547L15.641 13.2787C15.5916 13.2136 15.5404 13.1495 15.4866 13.0883C14.9991 12.5362 14.5084 11.9875 14.0185 11.4372C14.023 11.4317 14.0275 11.4275 14.0319 11.4225C13.8342 11.2251 13.636 11.0277 13.4383 10.8297L14.5877 7.36917C14.667 7.34816 14.7468 7.33057 14.8274 7.32191C15.4522 7.25837 16.0779 7.18644 16.7043 7.15021C17.0878 7.12868 17.4735 7.11634 17.8636 7.14391L20.7074 10.3493C20.6095 10.6585 20.5139 10.9686 20.4 11.2713ZM21.354 8.36865C22.1385 9.15365 22.746 10.0494 23.1755 11.0064C22.6441 10.6407 22.076 10.3398 21.4788 10.0946C21.3858 10.0563 21.2905 10.0224 21.1936 9.98905L18.3945 6.83411C18.4139 6.69785 18.4241 6.56133 18.4283 6.42376C19.4932 6.85721 20.4914 7.50621 21.354 8.36865ZM12.2136 6.2581C12.2246 6.26624 12.2299 6.27306 12.2362 6.2749C12.876 6.49596 13.458 6.82151 14.0067 7.2077L12.9329 10.4414C12.9274 10.443 12.9222 10.4446 12.9169 10.4469C12.6972 10.5378 12.4732 10.6191 12.2569 10.7176C11.3656 11.1227 10.4966 11.5714 9.67802 12.1093L7.55909 10.8557C7.56224 10.7895 7.57353 10.7223 7.5961 10.6625C7.7384 10.2834 7.87833 9.90215 8.03927 9.53065C8.16318 9.24449 8.30443 8.96803 8.45854 8.69788C8.55935 8.58656 8.66384 8.4763 8.77148 8.36865C9.77778 7.3626 10.9671 6.64823 12.2333 6.2258C12.2267 6.23604 12.2199 6.24681 12.2136 6.2581Z" fill="#1A96F8"/>
</svg>
