<svg width="31" height="31" viewBox="0 0 31 31" fill="none" xmlns="http://www.w3.org/2000/svg">
<circle cx="15.0625" cy="15.3672" r="15" fill="#0E193B"/>
<path d="M23.4826 20.1714V21.6755C23.4826 22.5052 22.8076 23.1796 21.9785 23.1796H9.04327C7.71606 23.1796 6.63672 22.1003 6.63672 20.7731C6.63672 20.7731 6.63672 10.5542 6.63672 10.5452C6.63672 9.21801 7.71606 8.13867 9.04327 8.13867H20.1736C20.6723 8.13867 21.076 8.54297 21.076 9.04113C21.076 9.53929 20.6723 9.94359 20.1736 9.94359H9.04327C8.71177 9.94359 8.44163 10.2131 8.44163 10.5452C8.44163 10.8773 8.71177 11.1469 9.04327 11.1469H21.9785C22.8076 11.1469 23.4826 11.8213 23.4826 12.651V14.1551H20.4744C18.8157 14.1551 17.4662 15.5045 17.4662 17.1632C17.4662 18.822 18.8157 20.1714 20.4744 20.1714H23.4826Z" fill="#1A96F8"/>
<path opacity="0.5" d="M23.4806 15.3594V18.9692H20.4724C19.4755 18.9692 18.6675 18.1612 18.6675 17.1643C18.6675 16.1674 19.4755 15.3594 20.4724 15.3594H23.4806Z" fill="#1A96F8"/>
</svg>
