<svg width="26" height="26" viewBox="0 0 26 26" fill="none" xmlns="http://www.w3.org/2000/svg">
<path d="M3.07471 0.5H9.40527C10.793 0.659668 11.9751 1.87207 12.0186 3.28076C12.0269 5.26807 12.0269 7.25537 12.0186 9.24268C11.9741 10.6978 10.6987 11.9751 9.24268 12.0186C7.58203 12.0298 5.9209 12.02 4.25977 12.0234C3.64941 12.0166 3.0166 12.0781 2.43555 11.8467C1.39062 11.4854 0.644531 10.4922 0.5 9.40723V3.11768C0.581543 2.68359 0.705566 2.25 0.94873 1.87646C1.40576 1.12354 2.21875 0.649902 3.07471 0.5ZM3.24707 2.47021C2.79932 2.54785 2.44434 2.97314 2.4541 3.42871C2.45264 5.31738 2.45264 7.20605 2.4541 9.09473C2.44043 9.61523 2.9082 10.0825 3.42871 10.0693C5.31738 10.0708 7.20605 10.0708 9.09473 10.0693C9.61523 10.0825 10.0825 9.61523 10.0693 9.09521C10.0708 7.20605 10.0708 5.31738 10.0693 3.42871C10.0742 3.0542 9.83984 2.69385 9.49902 2.5415C9.2041 2.40332 8.87061 2.4668 8.55664 2.45312C6.78711 2.46436 5.01514 2.43018 3.24707 2.47021Z" fill="white"/>
<path d="M16.5521 0.5H22.8827C23.7587 0.625977 24.5873 1.11328 25.0521 1.87646C25.2904 2.23779 25.4027 2.65918 25.5009 3.0752V9.44483C25.3324 10.5122 24.6029 11.4902 23.5668 11.8472C23.2177 11.9746 22.8446 12.0313 22.4735 12.0244C20.5682 12.019 18.663 12.0303 16.7582 12.0186C15.3041 11.9731 14.0258 10.6987 13.9823 9.24317C13.9716 7.28906 13.9794 5.33447 13.9784 3.38037C13.9847 2.2832 14.6732 1.23096 15.6708 0.776855C15.9486 0.640625 16.2538 0.576172 16.5521 0.5ZM16.725 2.47021C16.2772 2.54785 15.9222 2.97266 15.9315 3.42822C15.9301 5.3169 15.9301 7.20606 15.9315 9.09473C15.9179 9.61524 16.3856 10.0825 16.9056 10.0693C18.7948 10.0708 20.6835 10.0708 22.5721 10.0693C23.0927 10.0825 23.5595 9.61524 23.5468 9.09522C23.5482 7.20606 23.5482 5.31738 23.5468 3.42822C23.5516 3.0542 23.3168 2.69385 22.9764 2.5415C22.6815 2.40332 22.3475 2.4668 22.0341 2.45313C20.2645 2.46436 18.493 2.43018 16.725 2.47021Z" fill="white"/>
<path d="M0.5 16.5948C0.664551 15.1187 2.03125 13.8985 3.52734 13.9762C5.43262 13.9815 7.33838 13.9703 9.24316 13.982C10.6997 14.0245 11.9741 15.3033 12.0186 16.7579C12.0298 18.6954 12.0205 20.6334 12.0234 22.5714C12.0317 23.6476 11.3901 24.6935 10.4287 25.1764C10.1235 25.3424 9.78174 25.4151 9.44824 25.5006H3.07812C2.20898 25.3502 1.38574 24.8634 0.930176 24.0943C0.698242 23.7281 0.580566 23.3058 0.5 22.8839V16.5948ZM3.24756 15.9474C2.79932 16.025 2.44434 16.4498 2.4541 16.9059C2.45264 18.7945 2.45264 20.6832 2.4541 22.5719C2.44043 23.0924 2.9082 23.5597 3.42822 23.5465C5.31738 23.5479 7.20605 23.5479 9.09521 23.5465C9.61523 23.5592 10.0825 23.0924 10.0693 22.5719C10.0708 20.6832 10.0708 18.7945 10.0693 16.9054C10.0742 16.5313 9.83984 16.171 9.49902 16.0186C9.2041 15.8805 8.87012 15.9439 8.55664 15.9303C6.78711 15.9415 5.01514 15.9073 3.24756 15.9474Z" fill="white"/>
<path d="M13.9786 16.7577C14.0221 15.3022 15.3004 14.0263 16.7554 13.9819C18.7091 13.9721 20.6632 13.9789 22.6173 13.9784C23.7027 13.9848 24.7442 14.6571 25.2056 15.6376C25.3516 15.9252 25.4171 16.2431 25.4976 16.5527V22.9223C25.3487 23.7797 24.8761 24.5946 24.1212 25.0522C23.7603 25.2914 23.3385 25.4023 22.9224 25.5009H16.5523C15.4854 25.3315 14.5079 24.602 14.1505 23.5663C14.0211 23.2177 13.9664 22.8446 13.9732 22.4736C13.9786 20.5683 13.9674 18.663 13.9786 16.7577ZM16.7213 15.9477C16.2735 16.0253 15.9185 16.4506 15.9283 16.9062C15.9268 18.7948 15.9268 20.6835 15.9283 22.5722C15.9146 23.0927 16.3824 23.56 16.9029 23.5468C18.7916 23.5483 20.6803 23.5483 22.5689 23.5468C23.0889 23.56 23.5562 23.0927 23.5435 22.5727C23.545 20.684 23.545 18.7948 23.5435 16.9062C23.5484 16.5321 23.314 16.1718 22.9732 16.0195C22.6788 15.8808 22.3448 15.9443 22.0308 15.9306C20.2613 15.9418 18.4893 15.9076 16.7213 15.9477Z" fill="white"/>
</svg>
