<svg width="26" height="26" viewBox="0 0 26 26" fill="none" xmlns="http://www.w3.org/2000/svg">
<path d="M1.85336 0.5H5.96849C6.87055 0.603744 7.63899 1.3915 7.66724 2.3068C7.67263 3.59805 7.67263 4.8893 7.66724 6.18054C7.63835 7.12598 6.8093 7.95593 5.8628 7.98417C4.78331 7.99147 3.7035 7.98512 2.62369 7.98734C2.22694 7.9829 1.81559 8.02287 1.43788 7.87249C0.758632 7.63772 0.273639 6.99241 0.179688 6.28746V2.20083C0.232694 1.91879 0.313314 1.63706 0.471381 1.39436C0.768471 0.905141 1.29695 0.597399 1.85336 0.5ZM1.9654 1.78014C1.67434 1.83059 1.44359 2.10692 1.44994 2.40293C1.44898 3.63009 1.44898 4.85725 1.44994 6.08441C1.44105 6.42261 1.74512 6.72623 2.08347 6.71767C3.31119 6.71862 4.53891 6.71862 5.76662 6.71767C6.10498 6.72623 6.40873 6.42261 6.40016 6.08473C6.40111 4.85725 6.40111 3.63009 6.40016 2.40293C6.40334 2.15959 6.25098 1.92545 6.02944 1.82647C5.83772 1.73668 5.62094 1.77792 5.41685 1.76904C4.26658 1.77634 3.11472 1.75413 1.9654 1.78014Z" fill="#898B9F"/>
<path d="M10.6156 0.5H14.7308C15.3002 0.581853 15.8388 0.898479 16.141 1.39436C16.2959 1.62913 16.3689 1.90292 16.4327 2.17323V6.31189C16.3232 7.00542 15.849 7.64089 15.1755 7.87281C14.9485 7.95562 14.706 7.99242 14.4648 7.98798C13.2263 7.98449 11.9878 7.99178 10.7496 7.98417C9.80435 7.95466 8.97339 7.12661 8.94514 6.18086C8.93816 4.91119 8.94323 3.64119 8.9426 2.37152C8.94673 1.65863 9.39426 0.974939 10.0427 0.679887C10.2233 0.591371 10.4217 0.549493 10.6156 0.5ZM10.728 1.78014C10.4369 1.83059 10.2062 2.10661 10.2122 2.40261C10.2113 3.62977 10.2113 4.85725 10.2122 6.08441C10.2033 6.42261 10.5074 6.72623 10.8454 6.71767C12.0735 6.71862 13.3012 6.71862 14.5289 6.71767C14.8673 6.72623 15.1707 6.42261 15.1624 6.08473C15.1634 4.85725 15.1634 3.63009 15.1624 2.40261C15.1656 2.15959 15.0129 1.92545 14.7917 1.82647C14.6 1.73668 14.3829 1.77792 14.1791 1.76904C13.0289 1.77634 11.8773 1.75413 10.728 1.78014Z" fill="#898B9F"/>
<path d="M0.179688 10.9577C0.286652 9.99858 1.17507 9.20574 2.14759 9.25619C3.3861 9.25968 4.62492 9.25238 5.86312 9.25999C6.80993 9.2876 7.63835 10.1185 7.66724 11.0636C7.67454 12.3225 7.66851 13.5817 7.67041 14.8409C7.67581 15.5402 7.25874 16.2197 6.63377 16.5335C6.43539 16.6414 6.21321 16.6886 5.99643 16.7442H1.85558C1.2906 16.6464 0.755458 16.3301 0.45932 15.8305C0.308553 15.5925 0.232059 15.3181 0.179688 15.044V10.9577ZM1.96572 10.537C1.67434 10.5874 1.44359 10.8634 1.44994 11.1597C1.44898 12.3869 1.44898 13.6141 1.44994 14.8412C1.44105 15.1794 1.74512 15.4831 2.08316 15.4745C3.31119 15.4754 4.53891 15.4754 5.76694 15.4745C6.10498 15.4827 6.40873 15.1794 6.40016 14.8412C6.40111 13.6141 6.40111 12.3869 6.40016 11.1594C6.40334 10.9164 6.25098 10.6823 6.02944 10.5833C5.83772 10.4935 5.62062 10.5347 5.41685 10.5259C4.26658 10.5332 3.11472 10.511 1.96572 10.537Z" fill="#898B9F"/>
<path d="M0.179688 19.7135C0.286652 18.7544 1.17507 17.9616 2.14759 18.012C3.3861 18.0155 4.62492 18.0082 5.86312 18.0159C6.80993 18.0435 7.63835 18.8744 7.66724 19.8195C7.67454 21.0784 7.66851 22.3376 7.67041 23.5968C7.67581 24.296 7.25874 24.9756 6.63377 25.2894C6.43539 25.3972 6.21321 25.4445 5.99643 25.5H1.85558C1.2906 25.4023 0.755458 25.086 0.45932 24.5863C0.308553 24.3484 0.232059 24.0739 0.179688 23.7998V19.7135ZM1.96572 19.2928C1.67434 19.3433 1.44359 19.6193 1.44994 19.9156C1.44898 21.1428 1.44898 22.3699 1.44994 23.5971C1.44105 23.9353 1.74512 24.2389 2.08316 24.2303C3.31119 24.2313 4.53891 24.2313 5.76694 24.2303C6.10498 24.2386 6.40873 23.9353 6.40016 23.5971C6.40111 22.3699 6.40111 21.1428 6.40016 19.9153C6.40334 19.6723 6.25098 19.4381 6.02944 19.3391C5.83772 19.2494 5.62062 19.2906 5.41685 19.2817C4.26658 19.289 3.11472 19.2668 1.96572 19.2928Z" fill="#898B9F"/>
<path d="M8.94527 11.0649C8.97351 10.1191 9.80448 9.29012 10.7503 9.26125C12.0203 9.25491 13.2905 9.25935 14.5608 9.25903C15.2664 9.26315 15.9434 9.70002 16.2433 10.3371C16.3382 10.5239 16.3808 10.7305 16.4331 10.9316V15.0703C16.3363 15.6274 16.0291 16.1569 15.5384 16.4542C15.3038 16.6096 15.0296 16.6817 14.7591 16.7457H10.6183C9.92477 16.6356 9.28933 16.1617 9.05699 15.4888C8.97288 15.2622 8.93733 15.0198 8.94178 14.7787C8.94527 13.5408 8.93797 12.3028 8.94527 11.0649ZM10.7281 10.5385C10.4371 10.589 10.2063 10.8653 10.2127 11.1613C10.2117 12.3885 10.2117 13.6156 10.2127 14.8428C10.2038 15.181 10.5078 15.4846 10.8462 15.4761C12.0739 15.477 13.3016 15.477 14.5293 15.4761C14.8674 15.4846 15.1711 15.181 15.1629 14.8431C15.1638 13.616 15.1638 12.3885 15.1629 11.1613C15.1661 10.9183 15.0137 10.6842 14.7922 10.5852C14.6008 10.4951 14.3837 10.5363 14.1796 10.5274C13.0293 10.5347 11.8774 10.5125 10.7281 10.5385Z" fill="#898B9F"/>
<path d="M8.94527 19.8188C8.97351 18.873 9.80448 18.044 10.7503 18.0152C12.0203 18.0088 13.2905 18.0133 14.5608 18.0129C15.2664 18.0171 15.9434 18.4539 16.2433 19.091C16.3382 19.2779 16.3808 19.4844 16.4331 19.6855V23.8242C16.3363 24.3813 16.0291 24.9108 15.5384 25.2081C15.3038 25.3635 15.0296 25.4356 14.7591 25.4996H10.6183C9.92477 25.3896 9.28933 24.9156 9.05699 24.2427C8.97288 24.0161 8.93733 23.7737 8.94178 23.5326C8.94527 22.2947 8.93797 21.0567 8.94527 19.8188ZM10.7281 19.2924C10.4371 19.3429 10.2063 19.6192 10.2127 19.9152C10.2117 21.1424 10.2117 22.3696 10.2127 23.5967C10.2038 23.9349 10.5078 24.2385 10.8462 24.23C12.0739 24.2309 13.3016 24.2309 14.5293 24.23C14.8674 24.2385 15.1711 23.9349 15.1629 23.597C15.1638 22.3699 15.1638 21.1424 15.1629 19.9152C15.1661 19.6722 15.0137 19.4381 14.7922 19.3391C14.6008 19.249 14.3837 19.2902 14.1796 19.2813C13.0293 19.2886 11.8774 19.2664 10.7281 19.2924Z" fill="#898B9F"/>
<path d="M19.3617 0.5H23.4769C24.0463 0.581853 24.5849 0.898479 24.8871 1.39436C25.042 1.62913 25.115 1.90292 25.1788 2.17323V6.31189C25.0693 7.00542 24.5951 7.64089 23.9215 7.87281C23.6946 7.95562 23.4521 7.99242 23.2109 7.98798C21.9724 7.98449 20.7339 7.99178 19.4957 7.98417C18.5504 7.95466 17.7195 7.12661 17.6912 6.18086C17.6842 4.91119 17.6893 3.64119 17.6887 2.37152C17.6928 1.65863 18.1404 0.974939 18.7888 0.679887C18.9694 0.591371 19.1678 0.549493 19.3617 0.5ZM19.4741 1.78014C19.183 1.83059 18.9523 2.10661 18.9583 2.40261C18.9574 3.62977 18.9574 4.85725 18.9583 6.08441C18.9494 6.42261 19.2535 6.72623 19.5915 6.71767C20.8196 6.71862 22.0473 6.71862 23.275 6.71767C23.6133 6.72623 23.9168 6.42261 23.9085 6.08473C23.9095 4.85725 23.9095 3.63009 23.9085 2.40261C23.9117 2.15959 23.759 1.92545 23.5378 1.82647C23.3461 1.73668 23.129 1.77792 22.9252 1.76904C21.7749 1.77634 20.6234 1.75413 19.4741 1.78014Z" fill="#898B9F"/>
<path d="M17.6914 11.0649C17.7196 10.1191 18.5506 9.29012 19.4964 9.26125C20.7664 9.25491 22.0366 9.25935 23.3069 9.25903C24.0125 9.26315 24.6895 9.70002 24.9894 10.3371C25.0843 10.5239 25.1269 10.7305 25.1792 10.9316V15.0703C25.0824 15.6274 24.7752 16.1569 24.2845 16.4542C24.0499 16.6096 23.7757 16.6817 23.5052 16.7457H19.3644C18.6709 16.6356 18.0354 16.1617 17.8031 15.4888C17.719 15.2622 17.6834 15.0198 17.6879 14.7787C17.6914 13.5408 17.6841 12.3028 17.6914 11.0649ZM19.4742 10.5385C19.1832 10.589 18.9524 10.8653 18.9588 11.1613C18.9578 12.3885 18.9578 13.6156 18.9588 14.8428C18.9499 15.181 19.2539 15.4846 19.5923 15.4761C20.82 15.477 22.0477 15.477 23.2754 15.4761C23.6135 15.4846 23.9172 15.181 23.909 14.8431C23.9099 13.616 23.9099 12.3885 23.909 11.1613C23.9122 10.9183 23.7598 10.6842 23.5383 10.5852C23.3469 10.4951 23.1298 10.5363 22.9257 10.5274C21.7754 10.5347 20.6235 10.5125 19.4742 10.5385Z" fill="#898B9F"/>
<path d="M17.6914 19.8188C17.7196 18.873 18.5506 18.044 19.4964 18.0152C20.7664 18.0088 22.0366 18.0133 23.3069 18.0129C24.0125 18.0171 24.6895 18.4539 24.9894 19.091C25.0843 19.2779 25.1269 19.4844 25.1792 19.6855V23.8242C25.0824 24.3813 24.7752 24.9108 24.2845 25.2081C24.0499 25.3635 23.7757 25.4356 23.5052 25.4996H19.3644C18.6709 25.3896 18.0354 24.9156 17.8031 24.2427C17.719 24.0161 17.6834 23.7737 17.6879 23.5326C17.6914 22.2947 17.6841 21.0567 17.6914 19.8188ZM19.4742 19.2924C19.1832 19.3429 18.9524 19.6192 18.9588 19.9152C18.9578 21.1424 18.9578 22.3696 18.9588 23.5967C18.9499 23.9349 19.2539 24.2385 19.5923 24.23C20.82 24.2309 22.0477 24.2309 23.2754 24.23C23.6135 24.2385 23.9172 23.9349 23.909 23.597C23.9099 22.3699 23.9099 21.1424 23.909 19.9152C23.9122 19.6722 23.7598 19.4381 23.5383 19.3391C23.3469 19.249 23.1298 19.2902 22.9257 19.2813C21.7754 19.2886 20.6235 19.2664 19.4742 19.2924Z" fill="#898B9F"/>
</svg>
