<svg width="31" height="31" viewBox="0 0 31 31" fill="none" xmlns="http://www.w3.org/2000/svg">
<circle cx="15.0625" cy="15.3672" r="15" fill="#0E193B"/>
<path d="M21.4264 9.29624C19.7265 7.5963 17.4664 6.66016 15.0624 6.66016C12.6584 6.66016 10.3984 7.59633 8.69852 9.29624C6.99868 10.9961 6.0625 13.2562 6.0625 15.6602C6.0625 18.0642 6.99864 20.3243 8.69852 22.0242C10.3984 23.724 12.6584 24.6602 15.0624 24.6602C17.4664 24.6602 19.7265 23.724 21.4264 22.0241C23.1263 20.3243 24.0624 18.0642 24.0624 15.6602C24.0624 13.2562 23.1263 10.9961 21.4264 9.29624ZM21.8851 12.9418C21.5573 12.967 21.3005 12.8719 20.9754 12.7514C20.7521 12.6686 20.4991 12.5748 20.2024 12.5159C19.4029 12.357 18.5828 12.7929 18.113 13.6264C17.9762 13.8691 17.3221 15.1188 17.8787 15.8855C18.0874 16.1729 18.3666 16.3403 18.591 16.4748C18.8921 16.6552 19.2034 16.8418 19.5561 16.9841C19.6312 17.0144 19.7055 17.0419 19.7774 17.0684C19.9913 17.1473 20.2125 17.229 20.2916 17.3373C20.3359 17.398 20.3822 17.5347 20.3506 17.8409C20.3295 18.0458 20.2475 18.2693 20.1607 18.506C19.9469 19.0891 19.654 19.8878 20.3403 20.6719C20.4631 20.8122 20.6018 20.9311 20.7522 21.0278C19.3244 22.5405 17.3018 23.4863 15.0624 23.4863C10.7471 23.4863 7.2364 19.9755 7.2364 15.6602C7.2364 14.8287 7.36722 14.0273 7.60853 13.2749C7.73383 13.4542 7.8753 13.6136 8.011 13.7565C8.44507 14.2135 8.92492 14.6312 9.43936 14.9995C9.47751 15.0268 9.53182 15.0657 9.56012 15.0911C9.57946 15.1776 9.57169 15.3021 9.56294 15.4438C9.5443 15.7443 9.51875 16.1558 9.74568 16.5888C9.89351 16.8709 10.1005 17.0881 10.2831 17.2797C10.4609 17.4662 10.6145 17.6273 10.6574 17.7836C10.688 17.895 10.675 18.0588 10.6611 18.2324C10.6422 18.4714 10.6206 18.7423 10.6896 19.0338C10.7822 19.4255 11.0034 19.7158 11.1985 19.9719C11.3215 20.1334 11.4377 20.2859 11.4881 20.4256C11.527 20.5333 11.5427 20.6786 11.5592 20.8323C11.5759 20.9865 11.5948 21.1612 11.6408 21.3412C11.7788 21.8803 12.2263 22.3977 12.8302 22.3976C12.8624 22.3976 12.8951 22.3962 12.9281 22.3931C13.5534 22.336 13.9828 21.7773 14.0486 20.935C14.0592 20.7986 14.0873 20.4392 14.1568 20.36C14.1784 20.3514 14.2308 20.3385 14.2697 20.329C14.4351 20.2885 14.685 20.2273 14.8915 20.0158C15.2719 19.6263 15.167 19.1379 15.1043 18.8462C15.0855 18.7583 15.064 18.6587 15.0653 18.6067C15.0686 18.4677 15.3534 18.2245 15.4606 18.1329L16.5335 17.2165C16.9512 16.8633 17.1074 16.2488 16.9223 15.6876C16.7901 15.287 16.4975 14.9268 16.0761 14.6458C15.5562 14.2993 14.9941 14.2104 14.5341 14.4021C14.3777 14.4672 14.2512 14.5566 14.1496 14.6284C14.1188 14.6502 14.0783 14.6788 14.0453 14.6997C14.0302 14.6828 14.0127 14.6595 13.9965 14.6298C13.9578 14.5588 13.9231 14.4667 13.8863 14.3692C13.8378 14.2409 13.7829 14.0954 13.7017 13.949C13.2669 13.1655 12.5567 13.0786 12.0381 13.0152C11.9495 13.0043 11.8657 12.9941 11.7822 12.9812C11.3457 12.9136 10.9016 12.722 10.5607 12.4582C10.6857 12.4133 10.8384 12.3787 10.9206 12.3819C10.9801 12.3838 11.0498 12.3918 11.1237 12.4002C11.3354 12.4243 11.5988 12.4543 11.8828 12.3747C12.1694 12.2944 12.3807 12.1293 12.5505 11.9967C12.5989 11.9589 12.6447 11.9232 12.6869 11.8936C12.7663 11.8378 12.9209 11.8249 13.0845 11.8112C13.4921 11.7772 14.3402 11.7064 14.4602 10.5272C14.5197 9.94371 14.3065 9.42136 14.1353 9.00163C13.9929 8.65246 13.8547 8.30589 13.7341 7.94726C14.166 7.87322 14.6097 7.83409 15.0625 7.83409C16.034 7.83409 16.9645 8.01258 17.8236 8.33753C17.7978 8.36284 17.772 8.38812 17.7463 8.41333C17.4854 8.6692 17.2156 8.93382 17.03 9.17418C16.9515 9.27582 16.8201 9.44587 16.7814 9.69077C16.7158 10.1062 16.9642 10.4254 17.0703 10.5617C17.2279 10.7643 17.4919 11.1034 17.9279 11.2122C18.0253 11.2364 18.1193 11.2468 18.2095 11.2468C18.538 11.2468 18.8174 11.1093 19.034 11.0026C19.1588 10.9411 19.2878 10.8776 19.3649 10.8714C19.4383 10.8654 19.5678 10.9081 19.6934 10.9493C19.8767 11.0094 20.0844 11.0774 20.3292 11.0863C20.6511 11.0979 20.9366 10.9812 21.1606 10.7611C21.6803 11.4067 22.0998 12.1361 22.3953 12.9257C22.3534 12.9268 22.3108 12.9274 22.2728 12.9278C22.1576 12.9293 22.0272 12.9309 21.8851 12.9418Z" fill="#1A96F8"/>
</svg>
