<svg width="52" height="53" viewBox="0 0 52 53" fill="none" xmlns="http://www.w3.org/2000/svg">
<g filter="url(#filter0_b_4812_25)">
<circle cx="26" cy="26.6621" r="25" fill="white" fill-opacity="0.02"/>
<circle cx="26" cy="26.6621" r="25.5" stroke="white" stroke-opacity="0.1"/>
</g>
<path d="M36.8999 18.7045C35.5385 17.3942 33.736 16.678 31.8124 16.678C29.8887 16.678 28.0808 17.3995 26.7193 18.7099L26.0083 19.3942L25.2862 18.6992C23.9247 17.3889 22.1113 16.6621 20.1876 16.6621C18.2695 16.6621 16.4615 17.3836 15.1056 18.6886C13.7441 19.999 12.9945 21.739 13 23.5905C13 25.442 13.7552 27.1767 15.1166 28.487L25.4681 38.4499C25.6114 38.5878 25.8043 38.6621 25.9917 38.6621C26.1791 38.6621 26.3721 38.5931 26.5154 38.4552L36.8889 28.5083C38.2503 27.1979 39 25.4579 39 23.6064C39.0055 21.7549 38.2614 20.0149 36.8999 18.7045ZM35.8416 27.495L25.9917 36.938L16.1639 27.4791C15.0836 26.4393 14.4883 25.06 14.4883 23.5905C14.4883 22.121 15.078 20.7417 16.1584 19.7072C17.2332 18.6727 18.6663 18.0998 20.1876 18.0998C21.7144 18.0998 23.1531 18.6727 24.2334 19.7125L25.4791 20.9114C25.7713 21.1926 26.2398 21.1926 26.5319 20.9114L27.7666 19.7231C28.8469 18.6833 30.2856 18.1104 31.8069 18.1104C33.3282 18.1104 34.7613 18.6833 35.8416 19.7178C36.922 20.7576 37.5117 22.1369 37.5117 23.6064C37.5173 25.0759 36.922 26.4552 35.8416 27.495Z" fill="#F405C9"/>
<defs>
<filter id="filter0_b_4812_25" x="-20" y="-19.3379" width="92" height="92" filterUnits="userSpaceOnUse" color-interpolation-filters="sRGB">
<feFlood flood-opacity="0" result="BackgroundImageFix"/>
<feGaussianBlur in="BackgroundImageFix" stdDeviation="10"/>
<feComposite in2="SourceAlpha" operator="in" result="effect1_backgroundBlur_4812_25"/>
<feBlend mode="normal" in="SourceGraphic" in2="effect1_backgroundBlur_4812_25" result="shape"/>
</filter>
</defs>
</svg>
