<svg width="97" height="117" viewBox="0 0 97 117" fill="none" xmlns="http://www.w3.org/2000/svg">
<g filter="url(#filter0_f_241_2582)">
<ellipse cx="48.5" cy="74.1571" rx="18.5" ry="12.1571" fill="#09ABBF"/>
</g>
<rect x="9" width="79" height="79" rx="15" fill="white" fill-opacity="0.1"/>
<rect x="9.5" y="0.5" width="78" height="78" rx="14.5" stroke="white" stroke-opacity="0.2"/>
<path d="M60.1418 25H37.8582C36.305 25.002 34.8161 25.6433 33.7178 26.7832C32.6197 27.9233 32.0019 29.4689 32 31.0812V48.9188C32.0019 50.5311 32.6197 52.0767 33.7178 53.2168C34.8161 54.3567 36.305 54.998 37.8582 55H60.1418C61.695 54.998 63.1839 54.3567 64.2822 53.2168C65.3803 52.0767 65.9981 50.5311 66 48.9188V31.0812C65.9981 29.4689 65.3803 27.9233 64.2822 26.7832C63.1839 25.6433 61.695 25.002 60.1418 25ZM40.7446 31.6461C41.2557 31.6468 41.7454 31.8585 42.1065 32.2342C42.4674 32.6099 42.6697 33.119 42.669 33.6496C42.6685 34.1801 42.465 34.6888 42.1034 35.0635C41.7415 35.4382 41.2512 35.6487 40.7401 35.6485C40.229 35.648 39.7391 35.437 39.3776 35.0618C39.0164 34.6866 38.8134 34.1777 38.8134 33.6472C38.8137 33.1159 39.0174 32.6065 39.3795 32.231C39.7417 31.8558 40.2329 31.6453 40.7446 31.6461L40.7446 31.6461ZM60.1418 51.4708H40.7446L51.4341 40.3745L61.6208 50.9452C61.1969 51.2842 60.6771 51.4691 60.1418 51.4711L60.1418 51.4708Z" fill="url(#paint0_linear_241_2582)"/>
<defs>
<filter id="filter0_f_241_2582" x="0" y="32" width="97" height="84.3143" filterUnits="userSpaceOnUse" color-interpolation-filters="sRGB">
<feFlood flood-opacity="0" result="BackgroundImageFix"/>
<feBlend mode="normal" in="SourceGraphic" in2="BackgroundImageFix" result="shape"/>
<feGaussianBlur stdDeviation="15" result="effect1_foregroundBlur_241_2582"/>
</filter>
<linearGradient id="paint0_linear_241_2582" x1="49" y1="25" x2="49" y2="56" gradientUnits="userSpaceOnUse">
<stop stop-color="#06C7D9"/>
<stop offset="0.775659" stop-color="#93ECF4"/>
<stop offset="0.984004" stop-color="white"/>
</linearGradient>
</defs>
</svg>
