<svg width="28" height="26" viewBox="0 0 28 26" fill="none" xmlns="http://www.w3.org/2000/svg">
<path fill-rule="evenodd" clip-rule="evenodd" d="M27.017 14.4921C27.017 14.6171 26.9883 14.7358 26.9337 14.8389L21.3191 24.6153C21.081 25.0299 20.6409 25.2854 20.1647 25.2854H7.6883C7.21207 25.2854 6.77201 25.0299 6.5339 24.6153L0.918752 14.838C0.864345 14.7351 0.835938 14.6169 0.835938 14.4921C0.835938 14.0875 1.16224 13.7594 1.56475 13.7594H7.72504L9.28622 16.4253L9.29581 16.4412C9.50415 16.7775 9.94249 16.8871 10.284 16.6849L10.3017 16.6741C10.4592 16.5748 10.5732 16.4185 10.6199 16.237L12.6091 8.50608L14.3172 20.9525L14.3198 20.9698C14.3829 21.3614 14.7459 21.6327 15.1388 21.5782L15.1567 21.5755C15.4412 21.5288 15.6723 21.3175 15.7448 21.0358L18.1426 11.7173L19.1271 13.3985L19.1369 13.4147C19.2698 13.6287 19.5033 13.7594 19.7552 13.7594H26.2882C26.6907 13.7594 27.017 14.0875 27.017 14.4921ZM20.1647 0.880859C20.6409 0.880859 21.081 1.13627 21.3191 1.55089L26.934 11.3277C26.9883 11.4307 27.017 11.5494 27.017 11.6741C27.017 12.0788 26.6907 12.4068 26.2882 12.4068H20.1077L18.5466 9.74096L18.5358 9.72319C18.437 9.56488 18.2815 9.45027 18.101 9.40334L18.0841 9.39914C17.6999 9.30886 17.3123 9.5431 17.2129 9.92918L15.2236 17.6601L13.5156 5.21373L13.5129 5.19579C13.4665 4.90977 13.2563 4.6774 12.9761 4.60454C12.5864 4.5032 12.1888 4.73862 12.088 5.13038L9.69014 14.4489L8.70567 12.7678L8.6959 12.7515C8.56303 12.5375 8.32949 12.4068 8.07762 12.4068H1.56475C1.16224 12.4068 0.835938 12.0788 0.835938 11.6741C0.835938 11.5504 0.863583 11.4334 0.916987 11.3311L6.5339 1.55089C6.77201 1.13627 7.21207 0.880859 7.6883 0.880859H20.1647Z" fill="url(#paint0_linear_3838_2797)"/>
<defs>
<linearGradient id="paint0_linear_3838_2797" x1="20.7928" y1="2.70128" x2="8.38335" y2="24.2515" gradientUnits="userSpaceOnUse">
<stop stop-color="#00EAFF"/>
<stop offset="0.252531" stop-color="#0080FF"/>
<stop offset="0.497394" stop-color="#8000FF"/>
<stop offset="0.749912" stop-color="#E619E6"/>
<stop offset="0.999136" stop-color="#FF0000"/>
</linearGradient>
</defs>
</svg>
