<svg width="143" height="102" viewBox="0 0 143 102" fill="none" xmlns="http://www.w3.org/2000/svg">
<path d="M132.886 34.5841C135.318 43.6606 130.82 53.7859 121.339 62.8446C111.873 71.8887 97.5262 79.7741 80.5363 84.3265C63.5465 88.879 47.1787 89.2236 34.4589 86.1241C21.7187 83.0196 12.7609 76.4997 10.3288 67.4232C7.89678 58.3467 12.3945 48.2213 21.8757 39.1627C31.3415 30.1186 45.6888 22.2331 62.6786 17.6807C79.6685 13.1283 96.0363 12.7837 108.756 15.8831C121.496 18.9876 130.454 25.5075 132.886 34.5841Z" stroke="url(#paint0_linear_416_4)"/>
<path d="M53.8975 25.1166V60.6635H45.3525L32.7793 38.5443V60.6635H24.21V25.1166H32.7793L45.3525 47.2357V25.1166H53.8975ZM70.3867 25.1166V60.6635H61.8174V25.1166H70.3867ZM84.2051 39.9115V46.5033H67.9453V39.9115H84.2051ZM85.5967 25.1166V31.7328H67.9453V25.1166H85.5967ZM109.361 25.1166V60.6635H100.792V25.1166H109.361ZM120.055 25.1166V31.7328H90.3428V25.1166H120.055Z" fill="url(#paint1_linear_416_4)"/>
<defs>
<linearGradient id="paint0_linear_416_4" x1="67.1748" y1="32.8781" x2="80.6657" y2="84.8095" gradientUnits="userSpaceOnUse">
<stop stop-color="#06132D"/>
<stop offset="0.520435" stop-color="#0084FE"/>
<stop offset="0.984004" stop-color="#FE00C7"/>
</linearGradient>
<linearGradient id="paint1_linear_416_4" x1="83.5" y1="23" x2="86.253" y2="60.7995" gradientUnits="userSpaceOnUse">
<stop stop-color="#FE00C7"/>
<stop offset="1" stop-color="#0084FE"/>
</linearGradient>
</defs>
</svg>
